<svg xmlns="http://www.w3.org/2000/svg" xmlns:xlink="http://www.w3.org/1999/xlink" width="40" zoomAndPan="magnify" viewBox="0 0 30 30.000001" height="40" preserveAspectRatio="xMidYMid meet" version="1.0"><defs><clipPath id="5acafe2e19"><path d="M 0.484375 0 L 29.515625 0 L 29.515625 28.886719 L 0.484375 28.886719 Z M 0.484375 0 " clip-rule="nonzero"/></clipPath><clipPath id="ca1435b0ce"><path d="M 0.484375 0 L 29.515625 0 L 29.515625 28.886719 L 0.484375 28.886719 Z M 0.484375 0 " clip-rule="nonzero"/></clipPath><clipPath id="c28b6cdf8c"><path d="M 2.660156 6.148438 L 26.886719 6.148438 L 26.886719 22.738281 L 2.660156 22.738281 Z M 2.660156 6.148438 " clip-rule="nonzero"/></clipPath><clipPath id="7a94753502"><path d="M 10.644531 8.566406 C 12.824219 11.613281 12.386719 12.339844 12.242188 12.339844 C 11.878906 12.339844 11.734375 8.273438 11.152344 8.203125 C 10.355469 8.128906 8.757812 13.789062 7.597656 14.226562 C 7.015625 14.445312 6.289062 14.152344 5.855469 13.644531 C 5.203125 12.847656 4.546875 9.871094 4.984375 9.144531 C 5.203125 8.78125 5.925781 8.636719 6.289062 8.710938 C 6.652344 8.78125 7.015625 9.21875 7.160156 9.796875 C 7.523438 11.03125 5.273438 15.097656 6.507812 16.546875 C 8.25 18.652344 18.484375 19.089844 20.878906 17.925781 C 22.039062 17.347656 22.332031 16.257812 22.695312 15.167969 C 23.128906 13.933594 24.074219 11.832031 23.203125 10.816406 C 21.460938 8.78125 8.105469 7.839844 5.855469 9.726562 C 4.621094 10.742188 5.203125 12.992188 5.273438 14.660156 C 5.347656 16.402344 5.203125 19.234375 6.289062 19.886719 C 7.453125 20.613281 10.28125 18.363281 12.605469 18.074219 C 15.433594 17.710938 20.804688 19.160156 22.257812 18.507812 C 22.839844 18.289062 22.910156 18 23.203125 17.417969 C 23.710938 16.332031 24.289062 13.5 24.074219 12.046875 C 23.925781 10.960938 23.417969 9.796875 22.839844 9.363281 C 22.476562 9.074219 22.183594 9.144531 21.53125 9.144531 C 19.863281 9.21875 14.925781 9.871094 12.75 11.539062 C 10.644531 13.210938 9.992188 17.925781 8.613281 18.945312 C 7.886719 19.453125 7.015625 19.523438 6.507812 19.378906 C 6.074219 19.234375 5.566406 18.726562 5.636719 18.433594 C 5.710938 18.074219 7.160156 17.273438 7.453125 17.417969 C 7.742188 17.566406 7.597656 19.160156 7.304688 19.304688 C 7.015625 19.453125 5.710938 18.796875 5.636719 18.433594 C 5.566406 18.074219 6.652344 17.128906 7.015625 17.203125 C 7.378906 17.273438 7.886719 18.582031 7.667969 18.945312 C 7.523438 19.234375 6.582031 19.453125 6.21875 19.304688 C 5.925781 19.160156 5.566406 18.21875 5.710938 17.925781 C 5.855469 17.710938 6.363281 18 6.796875 17.710938 C 7.960938 16.839844 8.902344 11.613281 11.226562 9.796875 C 13.765625 7.765625 19.644531 6.53125 21.894531 6.605469 C 22.984375 6.605469 23.566406 6.824219 24.21875 7.402344 C 25.089844 8.128906 26.105469 9.433594 26.394531 10.960938 C 26.832031 13.136719 26.105469 17.78125 25.089844 19.378906 C 24.507812 20.324219 23.78125 20.683594 22.621094 20.976562 C 20.589844 21.484375 16.453125 20.175781 13.621094 20.539062 C 11.007812 20.832031 7.742188 22.71875 6.289062 22.71875 C 5.710938 22.71875 5.347656 22.574219 4.984375 22.28125 C 4.476562 21.847656 4.039062 20.976562 3.675781 19.960938 C 3.167969 18.507812 2.878906 16.113281 2.804688 14.296875 C 2.734375 12.628906 2.804688 10.597656 3.242188 9.363281 C 3.605469 8.492188 3.75 7.910156 4.695312 7.476562 C 7.378906 6.242188 21.386719 6.824219 24.074219 8.492188 C 25.160156 9.144531 25.304688 10.089844 25.523438 11.105469 C 25.742188 12.484375 25.378906 14.589844 24.796875 16.113281 C 24.21875 17.566406 23.636719 19.160156 22.039062 19.960938 C 19.425781 21.265625 11.226562 19.960938 8.539062 19.523438 C 7.304688 19.304688 6.726562 19.234375 6 18.726562 C 5.128906 18.074219 4.183594 16.984375 3.894531 15.75 C 3.53125 14.082031 4.257812 10.453125 4.839844 9.433594 C 5.054688 9 5.347656 8.78125 5.710938 8.710938 C 6.074219 8.636719 6.652344 8.855469 6.945312 9.21875 C 7.378906 9.796875 7.816406 11.976562 7.453125 12.410156 C 7.234375 12.628906 6.363281 12.628906 6.21875 12.410156 C 6 12.046875 6.507812 10.742188 6.945312 10.015625 C 7.378906 9.144531 8.105469 8.273438 8.902344 7.621094 C 9.703125 6.96875 10.933594 6.167969 11.660156 6.167969 C 12.097656 6.167969 12.460938 6.386719 12.75 6.75 C 13.183594 7.257812 13.621094 8.273438 13.839844 9.21875 C 14.128906 10.304688 14.347656 12.265625 13.984375 12.992188 C 13.765625 13.425781 13.332031 13.789062 12.894531 13.71875 C 11.953125 13.644531 9.046875 10.816406 8.757812 9.726562 C 8.613281 9.144531 8.902344 8.417969 9.195312 8.203125 C 9.484375 7.984375 10.644531 8.566406 10.644531 8.566406 " clip-rule="nonzero"/></clipPath><clipPath id="c6b15b33b2"><path d="M 7 15.085938 L 25.542969 15.085938 L 25.542969 22.902344 L 7 22.902344 Z M 7 15.085938 " clip-rule="nonzero"/></clipPath><clipPath id="df5c6e2889"><path d="M 7.886719 17.203125 C 13.183594 16.695312 18.917969 17.925781 21.097656 17.710938 C 22.113281 17.566406 22.695312 16.984375 23.347656 16.984375 C 23.925781 16.984375 24.582031 17.273438 24.945312 17.636719 C 25.234375 18 25.453125 18.507812 25.378906 19.089844 C 25.304688 19.886719 24.507812 21.195312 23.78125 21.847656 C 23.203125 22.355469 22.257812 22.863281 21.605469 22.789062 C 21.023438 22.71875 20.589844 22.28125 20.082031 21.773438 C 19.355469 20.902344 18.703125 18.21875 17.976562 17.78125 C 17.613281 17.566406 17.105469 17.566406 16.816406 17.78125 C 16.234375 18.21875 16.453125 21.046875 15.726562 21.554688 C 15.21875 21.917969 13.984375 21.703125 13.765625 21.410156 C 13.546875 21.121094 14.203125 19.667969 14.566406 19.597656 C 14.925781 19.523438 15.945312 20.613281 15.945312 21.046875 C 15.945312 21.339844 15.507812 21.847656 15.21875 21.917969 C 14.855469 21.992188 14.054688 21.773438 13.839844 21.484375 C 13.621094 21.195312 13.621094 20.394531 13.839844 20.105469 C 13.984375 19.816406 14.492188 19.597656 14.855469 19.597656 C 15.144531 19.597656 15.652344 19.886719 15.796875 20.175781 C 15.945312 20.539062 15.945312 21.265625 15.726562 21.554688 C 15.507812 21.847656 14.78125 22.066406 14.417969 21.917969 C 14.054688 21.773438 13.695312 21.410156 13.621094 20.902344 C 13.402344 19.886719 14.273438 16.476562 15.289062 15.675781 C 16.089844 15.097656 17.683594 15.167969 18.628906 15.605469 C 19.71875 16.113281 21.023438 17.78125 21.386719 18.726562 C 21.605469 19.378906 20.953125 20.394531 21.242188 20.613281 C 21.53125 20.832031 23.566406 19.597656 23.492188 19.453125 C 23.417969 19.234375 20.296875 20.03125 18.484375 20.03125 C 16.234375 20.03125 12.894531 19.015625 10.933594 19.015625 C 9.703125 19.015625 8.46875 19.667969 7.816406 19.378906 C 7.378906 19.160156 7.015625 18.507812 7.015625 18.144531 C 7.015625 17.78125 7.886719 17.203125 7.886719 17.203125 " clip-rule="nonzero"/></clipPath><clipPath id="61511c93bd"><path d="M 7.125 10.199219 L 12.777344 10.199219 L 12.777344 18.109375 L 7.125 18.109375 Z M 7.125 10.199219 " clip-rule="nonzero"/></clipPath><clipPath id="1f0559b50a"><path d="M 10.5 10.304688 C 12.460938 13.933594 12.75 15.605469 12.316406 16.183594 C 12.023438 16.546875 11.296875 16.765625 10.789062 16.621094 C 10.136719 16.476562 9.265625 15.675781 8.832031 14.878906 C 8.175781 13.789062 7.667969 10.453125 7.960938 10.304688 C 8.105469 10.234375 8.757812 10.816406 8.976562 11.324219 C 9.339844 12.121094 9.410156 13.644531 9.339844 14.804688 C 9.265625 15.894531 8.832031 17.925781 8.394531 18 C 8.03125 18.074219 7.234375 16.695312 7.160156 16.113281 C 7.160156 15.675781 7.816406 14.953125 7.742188 14.878906 C 7.667969 14.878906 7.160156 15.316406 7.160156 15.386719 C 7.160156 15.460938 7.667969 15.023438 7.886719 15.097656 C 8.25 15.316406 8.902344 17.636719 8.683594 17.855469 C 8.613281 17.925781 8.175781 17.855469 8.03125 17.636719 C 7.816406 17.203125 8.613281 15.824219 8.613281 14.804688 C 8.613281 13.574219 7.378906 11.175781 7.667969 10.667969 C 7.816406 10.453125 8.175781 10.378906 8.394531 10.523438 C 8.902344 10.816406 8.683594 13.5 9.339844 14.445312 C 9.847656 15.242188 11.226562 16.183594 11.589844 15.96875 C 12.023438 15.675781 11.589844 13.066406 11.152344 12.121094 C 10.863281 11.46875 9.847656 10.960938 9.917969 10.667969 C 9.917969 10.453125 10.5 10.304688 10.5 10.304688 " clip-rule="nonzero"/></clipPath><clipPath id="ce1dd4b494"><path d="M 7.28125 11 L 11 11 L 11 16.359375 L 7.28125 16.359375 Z M 7.28125 11 " clip-rule="nonzero"/></clipPath><clipPath id="87874cd4ae"><path d="M 10.5 11.683594 C 10.789062 14.007812 10.5 14.152344 10.28125 14.082031 C 9.847656 13.933594 8.832031 11.683594 9.046875 11.25 C 9.121094 11.03125 9.628906 10.960938 9.773438 11.03125 C 9.992188 11.175781 9.992188 11.832031 10.066406 12.410156 C 10.136719 13.355469 10.066406 16.183594 9.773438 16.257812 C 9.410156 16.332031 7.453125 11.902344 7.742188 11.46875 C 7.816406 11.324219 8.324219 11.324219 8.46875 11.46875 C 8.832031 11.902344 7.960938 16.113281 7.886719 16.113281 C 7.886719 16.113281 7.816406 15.53125 7.886719 15.460938 C 7.960938 15.386719 8.46875 15.675781 8.46875 15.75 C 8.46875 15.824219 7.960938 16.113281 7.816406 16.039062 C 7.378906 15.75 7.304688 11.902344 7.742188 11.46875 C 7.960938 11.25 8.324219 11.324219 8.613281 11.539062 C 9.265625 12.046875 10.5 15.242188 10.28125 15.894531 C 10.210938 16.113281 9.917969 16.332031 9.773438 16.257812 C 9.339844 16.113281 8.683594 11.832031 9.046875 11.25 C 9.195312 11.03125 9.554688 10.960938 9.773438 11.03125 C 10.210938 11.25 11.007812 13.355469 10.863281 13.789062 C 10.789062 14.007812 10.425781 14.152344 10.28125 14.082031 C 9.992188 13.933594 9.554688 11.976562 9.773438 11.683594 C 9.917969 11.539062 10.5 11.683594 10.5 11.683594 " clip-rule="nonzero"/></clipPath><clipPath id="10eb0afb28"><path d="M 4.125 5.402344 L 23.671875 5.402344 L 23.671875 24.792969 L 4.125 24.792969 Z M 4.125 5.402344 " clip-rule="nonzero"/></clipPath><clipPath id="eb8b286680"><path d="M 9.195312 6.894531 C 16.960938 5.804688 19.28125 7.113281 20.515625 8.128906 C 21.460938 8.855469 21.894531 9.726562 22.402344 10.597656 C 22.839844 11.46875 23.273438 12.339844 23.347656 13.5 C 23.492188 15.097656 23.273438 17.78125 22.402344 19.453125 C 21.53125 21.121094 19.425781 22.789062 17.976562 23.589844 C 16.960938 24.167969 16.234375 24.386719 15.074219 24.386719 C 13.476562 24.460938 10.644531 23.804688 9.195312 23.082031 C 8.175781 22.574219 7.523438 21.847656 6.871094 21.121094 C 6.21875 20.324219 5.636719 19.597656 5.273438 18.507812 C 4.765625 16.984375 4.695312 14.082031 4.984375 12.484375 C 5.203125 11.324219 5.492188 10.597656 6.21875 9.652344 C 7.234375 8.347656 9.195312 6.605469 11.007812 6.023438 C 12.824219 5.445312 15.433594 5.660156 17.03125 6.023438 C 18.195312 6.316406 18.917969 6.675781 19.789062 7.476562 C 21.023438 8.566406 22.546875 10.960938 23.128906 12.484375 C 23.566406 13.574219 23.636719 14.371094 23.492188 15.53125 C 23.273438 17.128906 22.183594 19.816406 21.242188 21.121094 C 20.589844 22.066406 19.863281 22.5 18.917969 23.082031 C 17.757812 23.734375 16.089844 24.460938 14.636719 24.605469 C 13.183594 24.75 11.589844 24.675781 10.136719 24.023438 C 8.394531 23.226562 6.074219 20.832031 5.203125 19.523438 C 4.695312 18.726562 4.546875 18.289062 4.402344 17.417969 C 4.183594 16.183594 4.257812 14.082031 4.476562 12.847656 C 4.621094 11.976562 4.839844 11.46875 5.273438 10.742188 C 5.925781 9.726562 8.324219 7.402344 8.324219 7.402344 " clip-rule="nonzero"/></clipPath><clipPath id="43b19df1c8"><path d="M 4.375 5 L 24.492188 5 L 24.492188 24.542969 L 4.375 24.542969 Z M 4.375 5 " clip-rule="nonzero"/></clipPath><clipPath id="306d0f1c9a"><path d="M 8.832031 7.113281 C 14.347656 5.082031 17.03125 5.371094 18.554688 5.878906 C 19.644531 6.242188 20.371094 6.675781 21.167969 7.476562 C 22.257812 8.636719 23.710938 10.886719 24.074219 12.773438 C 24.433594 14.660156 23.855469 17.203125 23.273438 18.726562 C 22.839844 19.816406 22.183594 20.46875 21.460938 21.195312 C 20.734375 21.917969 20.082031 22.574219 18.992188 23.007812 C 17.46875 23.589844 14.636719 24.023438 13.039062 23.804688 C 11.878906 23.660156 11.082031 23.371094 10.136719 22.71875 C 8.832031 21.773438 6.871094 19.667969 6.144531 18.21875 C 5.636719 17.203125 5.417969 16.402344 5.417969 15.242188 C 5.417969 13.644531 6.144531 10.886719 6.871094 9.433594 C 7.378906 8.417969 7.960938 7.765625 8.902344 7.113281 C 10.210938 6.167969 12.96875 5.226562 14.566406 5.082031 C 15.726562 4.933594 16.523438 5.082031 17.613281 5.515625 C 19.136719 6.097656 21.386719 7.476562 22.476562 9 C 23.566406 10.523438 24.363281 12.917969 24.289062 14.804688 C 24.21875 16.695312 23.128906 19.160156 22.183594 20.46875 C 21.53125 21.410156 20.734375 21.917969 19.863281 22.5 C 18.992188 23.082031 18.046875 23.734375 16.960938 24.023438 C 15.652344 24.386719 13.695312 24.460938 12.460938 24.386719 C 11.589844 24.316406 11.007812 24.167969 10.210938 23.804688 C 9.121094 23.296875 7.597656 22.355469 6.652344 21.121094 C 5.492188 19.523438 4.546875 16.695312 4.476562 14.734375 C 4.402344 13.136719 4.984375 11.683594 5.710938 10.378906 C 6.433594 9.144531 8.832031 7.113281 8.832031 7.113281 " clip-rule="nonzero"/></clipPath><clipPath id="bd035e6db9"><path d="M 5.226562 2.175781 L 24 2.175781 L 24 12 L 5.226562 12 Z M 5.226562 2.175781 " clip-rule="nonzero"/></clipPath><clipPath id="d74364a44d"><path d="M 5.226562 2.175781 L 16 2.175781 L 16 12 L 5.226562 12 Z M 5.226562 2.175781 " clip-rule="nonzero"/></clipPath><clipPath id="df745b4927"><path d="M 11 2.175781 L 18 2.175781 L 18 12 L 11 12 Z M 11 2.175781 " clip-rule="nonzero"/></clipPath><clipPath id="9f2e838982"><path d="M 5.226562 2.175781 L 24.097656 2.175781 L 24.097656 26.128906 L 5.226562 26.128906 Z M 5.226562 2.175781 " clip-rule="nonzero"/></clipPath></defs><g clip-path="url(#5acafe2e19)"><path fill="#f6f0e0" d="M 29.082031 14.371094 C 29.082031 15.296875 28.992188 16.210938 28.8125 17.117188 C 28.632812 18.023438 28.363281 18.90625 28.011719 19.761719 C 27.65625 20.613281 27.222656 21.425781 26.710938 22.195312 C 26.195312 22.964844 25.613281 23.675781 24.957031 24.328125 C 24.304688 24.984375 23.59375 25.566406 22.824219 26.082031 C 22.054688 26.59375 21.242188 27.027344 20.390625 27.382812 C 19.535156 27.734375 18.65625 28.003906 17.746094 28.183594 C 16.839844 28.363281 15.925781 28.453125 15 28.453125 C 14.074219 28.453125 13.160156 28.363281 12.253906 28.183594 C 11.34375 28.003906 10.464844 27.734375 9.609375 27.382812 C 8.757812 27.027344 7.945312 26.59375 7.175781 26.082031 C 6.40625 25.566406 5.695312 24.984375 5.042969 24.328125 C 4.386719 23.675781 3.804688 22.964844 3.289062 22.195312 C 2.777344 21.425781 2.34375 20.613281 1.988281 19.761719 C 1.636719 18.90625 1.367188 18.023438 1.1875 17.117188 C 1.007812 16.210938 0.917969 15.296875 0.917969 14.371094 C 0.917969 13.445312 1.007812 12.53125 1.1875 11.625 C 1.367188 10.714844 1.636719 9.835938 1.988281 8.980469 C 2.34375 8.128906 2.777344 7.316406 3.289062 6.546875 C 3.804688 5.777344 4.386719 5.066406 5.042969 4.414062 C 5.695312 3.757812 6.40625 3.175781 7.175781 2.660156 C 7.945312 2.148438 8.757812 1.714844 9.609375 1.359375 C 10.464844 1.007812 11.34375 0.738281 12.253906 0.558594 C 13.160156 0.378906 14.074219 0.289062 15 0.289062 C 15.925781 0.289062 16.839844 0.378906 17.746094 0.558594 C 18.65625 0.738281 19.535156 1.007812 20.390625 1.359375 C 21.242188 1.714844 22.054688 2.148438 22.824219 2.660156 C 23.59375 3.175781 24.304688 3.757812 24.957031 4.414062 C 25.613281 5.066406 26.195312 5.777344 26.710938 6.546875 C 27.222656 7.316406 27.65625 8.128906 28.011719 8.980469 C 28.363281 9.835938 28.632812 10.714844 28.8125 11.625 C 28.992188 12.53125 29.082031 13.445312 29.082031 14.371094 Z M 29.082031 14.371094 " fill-opacity="1" fill-rule="nonzero"/></g><path fill="#009bd1" d="M 6.75 8.160156 L 23.25 8.160156 C 23.449219 8.160156 23.640625 8.199219 23.824219 8.273438 C 24.007812 8.351562 24.171875 8.457031 24.3125 8.597656 C 24.453125 8.738281 24.558594 8.902344 24.636719 9.085938 C 24.710938 9.269531 24.75 9.460938 24.75 9.660156 L 24.75 19.082031 C 24.75 19.28125 24.710938 19.472656 24.636719 19.65625 C 24.558594 19.839844 24.453125 20.003906 24.3125 20.144531 C 24.171875 20.285156 24.007812 20.390625 23.824219 20.46875 C 23.640625 20.542969 23.449219 20.582031 23.25 20.582031 L 6.75 20.582031 C 6.550781 20.582031 6.359375 20.542969 6.175781 20.46875 C 5.992188 20.390625 5.828125 20.285156 5.6875 20.144531 C 5.546875 20.003906 5.441406 19.839844 5.363281 19.65625 C 5.289062 19.472656 5.25 19.28125 5.25 19.082031 L 5.25 9.660156 C 5.25 9.460938 5.289062 9.269531 5.363281 9.085938 C 5.441406 8.902344 5.546875 8.738281 5.6875 8.597656 C 5.828125 8.457031 5.992188 8.351562 6.175781 8.273438 C 6.359375 8.199219 6.550781 8.160156 6.75 8.160156 Z M 6.75 8.160156 " fill-opacity="1" fill-rule="nonzero"/><path fill="#f9cc4b" d="M 19.996094 17.113281 L 22.625 17.113281 C 22.730469 17.113281 22.824219 17.152344 22.902344 17.230469 C 22.976562 17.308594 23.015625 17.398438 23.015625 17.507812 L 23.015625 18.457031 C 23.015625 18.5625 22.976562 18.65625 22.902344 18.734375 C 22.824219 18.808594 22.730469 18.847656 22.625 18.847656 L 19.996094 18.847656 C 19.886719 18.847656 19.796875 18.808594 19.71875 18.734375 C 19.640625 18.65625 19.605469 18.5625 19.605469 18.457031 L 19.605469 17.507812 C 19.605469 17.398438 19.640625 17.308594 19.71875 17.230469 C 19.796875 17.152344 19.886719 17.113281 19.996094 17.113281 Z M 19.996094 17.113281 " fill-opacity="1" fill-rule="nonzero"/><path fill="#414785" d="M 5.25 11.011719 L 24.75 11.011719 L 24.75 13.179688 L 5.25 13.179688 Z M 5.25 11.011719 " fill-opacity="1" fill-rule="nonzero"/><g clip-path="url(#ca1435b0ce)"><path fill="#0b2230" d="M 23.25 7.726562 L 6.75 7.726562 C 6.492188 7.726562 6.246094 7.777344 6.011719 7.875 C 5.773438 7.972656 5.566406 8.113281 5.382812 8.292969 C 5.203125 8.472656 5.0625 8.683594 4.964844 8.917969 C 4.867188 9.15625 4.816406 9.402344 4.816406 9.660156 L 4.816406 19.082031 C 4.816406 19.339844 4.867188 19.585938 4.964844 19.820312 C 5.0625 20.058594 5.203125 20.269531 5.382812 20.449219 C 5.566406 20.628906 5.773438 20.769531 6.011719 20.867188 C 6.246094 20.964844 6.492188 21.015625 6.75 21.015625 L 23.25 21.015625 C 23.507812 21.015625 23.753906 20.964844 23.988281 20.867188 C 24.226562 20.769531 24.433594 20.628906 24.617188 20.449219 C 24.796875 20.269531 24.9375 20.058594 25.035156 19.820312 C 25.132812 19.585938 25.183594 19.339844 25.183594 19.082031 L 25.183594 9.660156 C 25.183594 9.402344 25.132812 9.15625 25.035156 8.917969 C 24.9375 8.683594 24.796875 8.472656 24.617188 8.292969 C 24.433594 8.113281 24.226562 7.972656 23.988281 7.875 C 23.753906 7.777344 23.507812 7.726562 23.25 7.726562 Z M 5.683594 11.445312 L 24.316406 11.445312 L 24.316406 12.746094 L 5.683594 12.746094 Z M 6.75 8.59375 L 23.25 8.59375 C 23.390625 8.59375 23.527344 8.621094 23.660156 8.675781 C 23.789062 8.730469 23.902344 8.804688 24.003906 8.90625 C 24.105469 9.003906 24.179688 9.121094 24.234375 9.25 C 24.289062 9.382812 24.316406 9.515625 24.316406 9.660156 L 24.316406 10.578125 L 5.683594 10.578125 L 5.683594 9.660156 C 5.683594 9.515625 5.710938 9.382812 5.765625 9.25 C 5.820312 9.121094 5.894531 9.003906 5.996094 8.90625 C 6.097656 8.804688 6.210938 8.730469 6.339844 8.675781 C 6.472656 8.621094 6.609375 8.59375 6.75 8.59375 Z M 23.25 20.148438 L 6.75 20.148438 C 6.609375 20.148438 6.472656 20.121094 6.339844 20.066406 C 6.210938 20.011719 6.097656 19.9375 5.996094 19.835938 C 5.894531 19.738281 5.820312 19.621094 5.765625 19.492188 C 5.710938 19.359375 5.683594 19.222656 5.683594 19.082031 L 5.683594 13.613281 L 24.316406 13.613281 L 24.316406 19.082031 C 24.316406 19.222656 24.289062 19.359375 24.234375 19.492188 C 24.179688 19.621094 24.105469 19.734375 24.003906 19.835938 C 23.902344 19.9375 23.789062 20.011719 23.660156 20.066406 C 23.527344 20.121094 23.390625 20.148438 23.25 20.148438 Z M 22.625 16.683594 L 19.996094 16.683594 C 19.769531 16.683594 19.574219 16.761719 19.414062 16.925781 C 19.25 17.085938 19.171875 17.28125 19.171875 17.507812 L 19.171875 18.457031 C 19.171875 18.683594 19.25 18.878906 19.414062 19.039062 C 19.574219 19.199219 19.769531 19.28125 19.996094 19.28125 L 22.625 19.28125 C 22.851562 19.28125 23.046875 19.199219 23.207031 19.039062 C 23.367188 18.878906 23.449219 18.683594 23.449219 18.457031 L 23.449219 17.507812 C 23.449219 17.28125 23.367188 17.085938 23.207031 16.925781 C 23.046875 16.761719 22.851562 16.683594 22.625 16.683594 Z M 22.582031 18.414062 L 20.039062 18.414062 L 20.039062 17.546875 L 22.582031 17.546875 Z M 8.011719 18.847656 C 8.011719 18.957031 7.957031 19.011719 7.851562 19.011719 L 6.984375 19.011719 C 6.875 19.011719 6.820312 18.957031 6.820312 18.847656 C 6.820312 18.738281 6.875 18.6875 6.984375 18.6875 L 7.851562 18.6875 C 7.957031 18.6875 8.011719 18.738281 8.011719 18.847656 Z M 10.179688 18.847656 C 10.179688 18.957031 10.125 19.011719 10.015625 19.011719 L 9.148438 19.011719 C 9.042969 19.011719 8.988281 18.957031 8.988281 18.847656 C 8.988281 18.738281 9.042969 18.6875 9.148438 18.6875 L 10.015625 18.6875 C 10.125 18.6875 10.179688 18.738281 10.179688 18.847656 Z M 15 28.886719 C 14.046875 28.886719 13.101562 28.792969 12.167969 28.609375 C 11.234375 28.421875 10.324219 28.148438 9.445312 27.78125 C 8.5625 27.417969 7.726562 26.96875 6.933594 26.441406 C 6.144531 25.910156 5.410156 25.308594 4.734375 24.636719 C 4.0625 23.960938 3.460938 23.226562 2.929688 22.4375 C 2.402344 21.644531 1.953125 20.804688 1.589844 19.925781 C 1.222656 19.046875 0.949219 18.136719 0.761719 17.203125 C 0.578125 16.269531 0.484375 15.324219 0.484375 14.371094 C 0.484375 13.417969 0.578125 12.472656 0.761719 11.539062 C 0.949219 10.605469 1.222656 9.695312 1.589844 8.816406 C 1.953125 7.933594 2.402344 7.097656 2.929688 6.304688 C 3.460938 5.515625 4.0625 4.78125 4.734375 4.105469 C 5.410156 3.433594 6.144531 2.832031 6.933594 2.300781 C 7.726562 1.773438 8.5625 1.324219 9.445312 0.960938 C 10.324219 0.59375 11.234375 0.320312 12.167969 0.132812 C 13.101562 -0.0507812 14.046875 -0.144531 15 -0.144531 C 15.953125 -0.144531 16.898438 -0.0507812 17.832031 0.132812 C 18.765625 0.320312 19.675781 0.59375 20.554688 0.960938 C 21.4375 1.324219 22.273438 1.773438 23.066406 2.300781 C 23.855469 2.832031 24.589844 3.433594 25.265625 4.105469 C 25.9375 4.78125 26.539062 5.515625 27.070312 6.304688 C 27.597656 7.097656 28.046875 7.933594 28.410156 8.816406 C 28.777344 9.695312 29.050781 10.605469 29.238281 11.539062 C 29.421875 12.472656 29.515625 13.417969 29.515625 14.371094 C 29.515625 15.324219 29.421875 16.265625 29.234375 17.203125 C 29.046875 18.136719 28.773438 19.042969 28.40625 19.921875 C 28.042969 20.804688 27.59375 21.640625 27.066406 22.433594 C 26.535156 23.222656 25.933594 23.957031 25.257812 24.628906 C 24.585938 25.304688 23.851562 25.90625 23.0625 26.4375 C 22.269531 26.964844 21.433594 27.414062 20.550781 27.777344 C 19.671875 28.144531 18.765625 28.417969 17.832031 28.605469 C 16.894531 28.792969 15.953125 28.886719 15 28.886719 Z M 15 0.722656 C 14.105469 0.722656 13.214844 0.808594 12.335938 0.984375 C 11.457031 1.160156 10.605469 1.417969 9.777344 1.761719 C 8.949219 2.101562 8.160156 2.523438 7.417969 3.023438 C 6.671875 3.519531 5.980469 4.085938 5.347656 4.71875 C 4.714844 5.351562 4.148438 6.042969 3.652344 6.789062 C 3.152344 7.53125 2.734375 8.320312 2.390625 9.148438 C 2.046875 9.976562 1.789062 10.828125 1.613281 11.707031 C 1.4375 12.585938 1.351562 13.476562 1.351562 14.371094 C 1.351562 15.265625 1.4375 16.15625 1.613281 17.035156 C 1.789062 17.914062 2.046875 18.765625 2.390625 19.59375 C 2.734375 20.421875 3.152344 21.210938 3.652344 21.953125 C 4.148438 22.699219 4.714844 23.390625 5.347656 24.023438 C 5.980469 24.65625 6.671875 25.222656 7.417969 25.71875 C 8.160156 26.21875 8.949219 26.636719 9.777344 26.980469 C 10.605469 27.324219 11.457031 27.582031 12.335938 27.757812 C 13.214844 27.933594 14.105469 28.019531 15 28.019531 C 15.894531 28.019531 16.785156 27.933594 17.664062 27.757812 C 18.542969 27.582031 19.394531 27.324219 20.222656 26.980469 C 21.050781 26.636719 21.839844 26.21875 22.582031 25.71875 C 23.328125 25.222656 24.019531 24.65625 24.652344 24.023438 C 25.285156 23.390625 25.851562 22.699219 26.347656 21.953125 C 26.847656 21.210938 27.265625 20.421875 27.609375 19.59375 C 27.953125 18.765625 28.210938 17.914062 28.386719 17.035156 C 28.5625 16.15625 28.648438 15.265625 28.648438 14.371094 C 28.648438 13.476562 28.558594 12.585938 28.382812 11.710938 C 28.210938 10.832031 27.949219 9.976562 27.605469 9.148438 C 27.261719 8.324219 26.84375 7.535156 26.34375 6.792969 C 25.847656 6.046875 25.28125 5.355469 24.648438 4.722656 C 24.011719 4.089844 23.324219 3.523438 22.578125 3.027344 C 21.835938 2.527344 21.046875 2.109375 20.222656 1.765625 C 19.394531 1.421875 18.539062 1.160156 17.660156 0.984375 C 16.785156 0.8125 15.894531 0.722656 15 0.722656 Z M 15 0.722656 " fill-opacity="1" fill-rule="nonzero"/></g><g clip-path="url(#c28b6cdf8c)"><g clip-path="url(#7a94753502)"><path fill="#f6f0e0" d="M -0.0976562 3.265625 L 29.296875 3.265625 L 29.296875 25.621094 L -0.0976562 25.621094 Z M -0.0976562 3.265625 " fill-opacity="1" fill-rule="nonzero"/></g></g><g clip-path="url(#c6b15b33b2)"><g clip-path="url(#df5c6e2889)"><path fill="#f6f0e0" d="M 4.113281 12.703125 L 28.28125 12.703125 L 28.28125 25.695312 L 4.113281 25.695312 Z M 4.113281 12.703125 " fill-opacity="1" fill-rule="nonzero"/></g></g><g clip-path="url(#61511c93bd)"><g clip-path="url(#1f0559b50a)"><path fill="#2d90eb" d="M 4.257812 7.402344 L 15.21875 7.402344 L 15.21875 20.902344 L 4.257812 20.902344 Z M 4.257812 7.402344 " fill-opacity="1" fill-rule="nonzero"/></g></g><g clip-path="url(#ce1dd4b494)"><g clip-path="url(#87874cd4ae)"><path fill="#f6f0e0" d="M 4.839844 8.128906 L 13.765625 8.128906 L 13.765625 19.160156 L 4.839844 19.160156 Z M 4.839844 8.128906 " fill-opacity="1" fill-rule="nonzero"/></g></g><g clip-path="url(#10eb0afb28)"><g clip-path="url(#eb8b286680)"><path fill="#f6f0e0" d="M 1.5 2.683594 L 26.394531 2.683594 L 26.394531 27.507812 L 1.5 27.507812 Z M 1.5 2.683594 " fill-opacity="1" fill-rule="nonzero"/></g></g><g clip-path="url(#43b19df1c8)"><g clip-path="url(#306d0f1c9a)"><path fill="#f6f0e0" d="M 1.574219 2.175781 L 27.195312 2.175781 L 27.195312 27.289062 L 1.574219 27.289062 Z M 1.574219 2.175781 " fill-opacity="1" fill-rule="nonzero"/></g></g><g clip-path="url(#bd035e6db9)"><path fill="#ff5741" d="M 8.523438 10.652344 C 9.703125 10.652344 10.730469 11.027344 11.242188 11.578125 C 11.433594 11.78125 11.75 11.78125 11.941406 11.578125 C 12.457031 11.027344 13.480469 10.652344 14.664062 10.652344 C 15.84375 10.652344 16.871094 11.027344 17.382812 11.578125 C 17.574219 11.78125 17.890625 11.78125 18.082031 11.578125 C 18.59375 11.027344 19.621094 10.652344 20.800781 10.652344 C 22.054688 10.652344 23.128906 11.074219 23.605469 11.675781 C 23.695312 11.785156 23.871094 11.726562 23.871094 11.589844 C 23.871094 11.585938 23.871094 11.585938 23.871094 11.582031 C 23.871094 6.503906 19.75 2.390625 14.664062 2.390625 C 9.578125 2.390625 5.453125 6.503906 5.453125 11.582031 C 5.453125 11.585938 5.453125 11.585938 5.453125 11.589844 C 5.453125 11.726562 5.632812 11.785156 5.71875 11.675781 C 6.195312 11.074219 7.273438 10.652344 8.523438 10.652344 " fill-opacity="1" fill-rule="nonzero"/></g><g clip-path="url(#d74364a44d)"><path fill="#ff908a" d="M 15.253906 2.410156 C 15.058594 2.398438 14.859375 2.390625 14.664062 2.390625 C 9.578125 2.390625 5.453125 6.503906 5.453125 11.582031 C 5.453125 11.585938 5.453125 11.585938 5.453125 11.589844 C 5.453125 11.726562 5.632812 11.785156 5.71875 11.675781 C 5.925781 11.414062 6.25 11.183594 6.652344 11.007812 C 6.9375 6.394531 10.632812 2.703125 15.253906 2.410156 " fill-opacity="1" fill-rule="nonzero"/></g><path fill="#bc8d66" d="M 19.371094 25.914062 L 9.953125 25.914062 C 9.699219 25.914062 9.492188 25.710938 9.492188 25.453125 L 9.492188 18.160156 C 9.492188 17.90625 9.699219 17.699219 9.953125 17.699219 L 19.371094 17.699219 C 19.625 17.699219 19.832031 17.90625 19.832031 18.160156 L 19.832031 25.453125 C 19.832031 25.710938 19.625 25.914062 19.371094 25.914062 " fill-opacity="1" fill-rule="nonzero"/><path fill="#cea282" d="M 9.953125 17.699219 C 9.699219 17.699219 9.492188 17.90625 9.492188 18.160156 L 9.492188 25.453125 C 9.492188 25.710938 9.699219 25.914062 9.953125 25.914062 L 10.671875 25.914062 L 10.671875 17.699219 L 9.953125 17.699219 " fill-opacity="1" fill-rule="nonzero"/><path fill="#f9c04a" d="M 15.523438 20.953125 L 14.730469 20.542969 C 14.6875 20.519531 14.636719 20.519531 14.59375 20.542969 L 13.800781 20.953125 C 13.703125 21.003906 13.585938 20.933594 13.585938 20.820312 L 13.585938 17.699219 L 15.738281 17.699219 L 15.738281 20.820312 C 15.738281 20.933594 15.621094 21.003906 15.523438 20.953125 " fill-opacity="1" fill-rule="nonzero"/><path fill="#ffda9f" d="M 14.765625 17.699219 L 13.585938 17.699219 L 13.585938 20.820312 C 13.585938 20.933594 13.703125 21.003906 13.800781 20.953125 L 14.59375 20.542969 C 14.636719 20.519531 14.6875 20.519531 14.730469 20.542969 L 14.765625 20.558594 L 14.765625 17.699219 " fill-opacity="1" fill-rule="nonzero"/><g clip-path="url(#df745b4927)"><path fill="#f9c04a" d="M 14.664062 2.390625 C 10.550781 5.222656 11.574219 11.730469 11.574219 11.730469 L 11.578125 11.730469 C 11.707031 11.734375 11.84375 11.683594 11.941406 11.578125 C 12.457031 11.027344 13.480469 10.652344 14.664062 10.652344 C 15.84375 10.652344 16.871094 11.027344 17.382812 11.578125 C 17.484375 11.683594 17.617188 11.734375 17.75 11.730469 C 17.75 11.730469 18.773438 5.222656 14.664062 2.390625 " fill-opacity="1" fill-rule="nonzero"/></g><path fill="#000307" d="M 12.949219 23.441406 L 10.820312 23.441406 C 10.703125 23.441406 10.609375 23.539062 10.609375 23.65625 C 10.609375 23.773438 10.703125 23.867188 10.820312 23.867188 L 12.949219 23.867188 C 13.066406 23.867188 13.164062 23.773438 13.164062 23.65625 C 13.164062 23.539062 13.066406 23.441406 12.949219 23.441406 " fill-opacity="1" fill-rule="nonzero"/><path fill="#000307" d="M 12.949219 24.554688 L 10.820312 24.554688 C 10.703125 24.554688 10.609375 24.648438 10.609375 24.765625 C 10.609375 24.882812 10.703125 24.980469 10.820312 24.980469 L 12.949219 24.980469 C 13.066406 24.980469 13.164062 24.882812 13.164062 24.765625 C 13.164062 24.648438 13.066406 24.554688 12.949219 24.554688 " fill-opacity="1" fill-rule="nonzero"/><g clip-path="url(#9f2e838982)"><path fill="#000307" d="M 20.800781 10.4375 C 19.65625 10.4375 18.605469 10.785156 18.011719 11.34375 C 18.074219 10.730469 18.144531 9.507812 17.960938 8.09375 C 17.652344 5.726562 16.742188 3.851562 15.316406 2.628906 C 19.917969 2.960938 23.570312 6.757812 23.65625 11.410156 C 23.082031 10.816406 21.988281 10.4375 20.800781 10.4375 Z M 15.523438 17.484375 L 15.300781 17.484375 L 17.894531 11.921875 C 18.027344 11.890625 18.144531 11.824219 18.238281 11.722656 C 18.730469 11.191406 19.714844 10.863281 20.800781 10.863281 C 21.90625 10.863281 22.902344 11.207031 23.382812 11.742188 Z M 19.371094 17.910156 C 19.507812 17.910156 19.617188 18.023438 19.617188 18.160156 L 19.617188 25.453125 C 19.617188 25.589844 19.507812 25.703125 19.371094 25.703125 L 9.953125 25.703125 C 9.816406 25.703125 9.707031 25.589844 9.707031 25.453125 L 9.707031 18.160156 C 9.707031 18.023438 9.816406 17.910156 9.953125 17.910156 L 13.375 17.910156 L 13.375 20.820312 C 13.375 20.949219 13.4375 21.0625 13.546875 21.128906 C 13.65625 21.195312 13.789062 21.199219 13.898438 21.140625 L 14.664062 20.746094 L 15.425781 21.140625 C 15.476562 21.167969 15.535156 21.183594 15.589844 21.183594 C 15.65625 21.183594 15.71875 21.164062 15.777344 21.128906 C 15.886719 21.0625 15.953125 20.949219 15.953125 20.820312 L 15.953125 17.910156 Z M 5.941406 11.742188 C 6.421875 11.207031 7.421875 10.863281 8.523438 10.863281 C 9.613281 10.863281 10.59375 11.191406 11.085938 11.722656 C 11.179688 11.824219 11.300781 11.890625 11.429688 11.921875 L 13.984375 17.484375 L 13.757812 17.484375 Z M 14.007812 2.628906 C 12.582031 3.851562 11.675781 5.726562 11.367188 8.09375 C 11.179688 9.507812 11.253906 10.730469 11.3125 11.34375 C 10.722656 10.785156 9.667969 10.4375 8.523438 10.4375 C 7.335938 10.4375 6.242188 10.816406 5.667969 11.410156 C 5.757812 6.757812 9.410156 2.960938 14.007812 2.628906 Z M 14.964844 17.910156 L 15.523438 17.910156 L 15.523438 20.714844 L 14.828125 20.351562 C 14.726562 20.300781 14.601562 20.300781 14.496094 20.351562 L 13.800781 20.714844 L 13.800781 17.910156 Z M 14.828125 17.484375 L 14.453125 17.484375 L 11.878906 11.882812 C 11.9375 11.855469 11.992188 11.820312 12.042969 11.777344 C 12.042969 11.777344 12.042969 11.773438 12.042969 11.773438 C 12.0625 11.757812 12.082031 11.742188 12.097656 11.722656 C 12.175781 11.640625 12.265625 11.5625 12.363281 11.488281 C 12.902344 11.097656 13.746094 10.863281 14.664062 10.863281 C 15.75 10.863281 16.734375 11.191406 17.226562 11.722656 C 17.289062 11.789062 17.363281 11.84375 17.445312 11.878906 Z M 17.535156 8.136719 C 17.730469 9.636719 17.628906 10.941406 17.570312 11.460938 C 17.570312 11.460938 17.566406 11.457031 17.566406 11.457031 C 17.558594 11.449219 17.546875 11.441406 17.539062 11.433594 C 16.96875 10.820312 15.867188 10.4375 14.664062 10.4375 C 13.460938 10.4375 12.355469 10.820312 11.785156 11.433594 C 11.777344 11.441406 11.769531 11.449219 11.757812 11.457031 C 11.757812 11.457031 11.757812 11.460938 11.753906 11.460938 C 11.695312 10.945312 11.59375 9.644531 11.789062 8.148438 C 12.015625 6.421875 12.699219 4.078125 14.664062 2.652344 C 16.625 4.078125 17.308594 6.414062 17.535156 8.136719 Z M 14.664062 2.175781 C 9.46875 2.175781 5.238281 6.394531 5.238281 11.582031 L 5.238281 11.589844 C 5.242188 11.738281 5.328125 11.863281 5.464844 11.921875 L 13.039062 17.484375 L 9.953125 17.484375 C 9.582031 17.484375 9.277344 17.789062 9.277344 18.160156 L 9.277344 25.453125 C 9.277344 25.828125 9.582031 26.128906 9.953125 26.128906 L 19.371094 26.128906 C 19.742188 26.128906 20.046875 25.828125 20.046875 25.453125 L 20.046875 18.160156 C 20.046875 17.789062 19.742188 17.484375 19.371094 17.484375 L 16.246094 17.484375 L 23.859375 11.921875 C 23.996094 11.867188 24.085938 11.738281 24.085938 11.589844 L 24.085938 11.582031 C 24.085938 6.394531 19.859375 2.175781 14.664062 2.175781 " fill-opacity="1" fill-rule="nonzero"/></g></svg>