<svg xmlns="http://www.w3.org/2000/svg" xmlns:xlink="http://www.w3.org/1999/xlink" width="40" zoomAndPan="magnify" viewBox="0 0 30 30.000001" height="40" preserveAspectRatio="xMidYMid meet" version="1.0"><defs><clipPath id="2daffc8fb8"><path d="M 0.484375 0 L 29.515625 0 L 29.515625 28.886719 L 0.484375 28.886719 Z M 0.484375 0 " clip-rule="nonzero"/></clipPath><clipPath id="a7dd7ad3a9"><path d="M 0.484375 0 L 29.515625 0 L 29.515625 28.886719 L 0.484375 28.886719 Z M 0.484375 0 " clip-rule="nonzero"/></clipPath><clipPath id="bb3a1e61ae"><path d="M 2.660156 6.148438 L 26.886719 6.148438 L 26.886719 22.738281 L 2.660156 22.738281 Z M 2.660156 6.148438 " clip-rule="nonzero"/></clipPath><clipPath id="77866c235d"><path d="M 10.644531 8.566406 C 12.824219 11.613281 12.386719 12.339844 12.242188 12.339844 C 11.878906 12.339844 11.734375 8.273438 11.152344 8.203125 C 10.355469 8.128906 8.757812 13.789062 7.597656 14.226562 C 7.015625 14.445312 6.289062 14.152344 5.855469 13.644531 C 5.203125 12.847656 4.546875 9.871094 4.984375 9.144531 C 5.203125 8.78125 5.925781 8.636719 6.289062 8.710938 C 6.652344 8.78125 7.015625 9.21875 7.160156 9.796875 C 7.523438 11.03125 5.273438 15.097656 6.507812 16.546875 C 8.25 18.652344 18.484375 19.089844 20.878906 17.925781 C 22.039062 17.347656 22.332031 16.257812 22.695312 15.167969 C 23.128906 13.933594 24.074219 11.832031 23.203125 10.816406 C 21.460938 8.78125 8.105469 7.839844 5.855469 9.726562 C 4.621094 10.742188 5.203125 12.992188 5.273438 14.660156 C 5.347656 16.402344 5.203125 19.234375 6.289062 19.886719 C 7.453125 20.613281 10.28125 18.363281 12.605469 18.074219 C 15.433594 17.710938 20.804688 19.160156 22.257812 18.507812 C 22.839844 18.289062 22.910156 18 23.203125 17.417969 C 23.710938 16.332031 24.289062 13.5 24.074219 12.046875 C 23.925781 10.960938 23.417969 9.796875 22.839844 9.363281 C 22.476562 9.074219 22.183594 9.144531 21.53125 9.144531 C 19.863281 9.21875 14.925781 9.871094 12.75 11.539062 C 10.644531 13.210938 9.992188 17.925781 8.613281 18.945312 C 7.886719 19.453125 7.015625 19.523438 6.507812 19.378906 C 6.074219 19.234375 5.566406 18.726562 5.636719 18.433594 C 5.710938 18.074219 7.160156 17.273438 7.453125 17.417969 C 7.742188 17.566406 7.597656 19.160156 7.304688 19.304688 C 7.015625 19.453125 5.710938 18.796875 5.636719 18.433594 C 5.566406 18.074219 6.652344 17.128906 7.015625 17.203125 C 7.378906 17.273438 7.886719 18.582031 7.667969 18.945312 C 7.523438 19.234375 6.582031 19.453125 6.21875 19.304688 C 5.925781 19.160156 5.566406 18.21875 5.710938 17.925781 C 5.855469 17.710938 6.363281 18 6.796875 17.710938 C 7.960938 16.839844 8.902344 11.613281 11.226562 9.796875 C 13.765625 7.765625 19.644531 6.53125 21.894531 6.605469 C 22.984375 6.605469 23.566406 6.824219 24.21875 7.402344 C 25.089844 8.128906 26.105469 9.433594 26.394531 10.960938 C 26.832031 13.136719 26.105469 17.78125 25.089844 19.378906 C 24.507812 20.324219 23.78125 20.683594 22.621094 20.976562 C 20.589844 21.484375 16.453125 20.175781 13.621094 20.539062 C 11.007812 20.832031 7.742188 22.71875 6.289062 22.71875 C 5.710938 22.71875 5.347656 22.574219 4.984375 22.28125 C 4.476562 21.847656 4.039062 20.976562 3.675781 19.960938 C 3.167969 18.507812 2.878906 16.113281 2.804688 14.296875 C 2.734375 12.628906 2.804688 10.597656 3.242188 9.363281 C 3.605469 8.492188 3.75 7.910156 4.695312 7.476562 C 7.378906 6.242188 21.386719 6.824219 24.074219 8.492188 C 25.160156 9.144531 25.304688 10.089844 25.523438 11.105469 C 25.742188 12.484375 25.378906 14.589844 24.796875 16.113281 C 24.21875 17.566406 23.636719 19.160156 22.039062 19.960938 C 19.425781 21.265625 11.226562 19.960938 8.539062 19.523438 C 7.304688 19.304688 6.726562 19.234375 6 18.726562 C 5.128906 18.074219 4.183594 16.984375 3.894531 15.75 C 3.53125 14.082031 4.257812 10.453125 4.839844 9.433594 C 5.054688 9 5.347656 8.78125 5.710938 8.710938 C 6.074219 8.636719 6.652344 8.855469 6.945312 9.21875 C 7.378906 9.796875 7.816406 11.976562 7.453125 12.410156 C 7.234375 12.628906 6.363281 12.628906 6.21875 12.410156 C 6 12.046875 6.507812 10.742188 6.945312 10.015625 C 7.378906 9.144531 8.105469 8.273438 8.902344 7.621094 C 9.703125 6.96875 10.933594 6.167969 11.660156 6.167969 C 12.097656 6.167969 12.460938 6.386719 12.75 6.75 C 13.183594 7.257812 13.621094 8.273438 13.839844 9.21875 C 14.128906 10.304688 14.347656 12.265625 13.984375 12.992188 C 13.765625 13.425781 13.332031 13.789062 12.894531 13.71875 C 11.953125 13.644531 9.046875 10.816406 8.757812 9.726562 C 8.613281 9.144531 8.902344 8.417969 9.195312 8.203125 C 9.484375 7.984375 10.644531 8.566406 10.644531 8.566406 " clip-rule="nonzero"/></clipPath><clipPath id="7d459834eb"><path d="M 7 15.085938 L 25.542969 15.085938 L 25.542969 22.902344 L 7 22.902344 Z M 7 15.085938 " clip-rule="nonzero"/></clipPath><clipPath id="1bbc729141"><path d="M 7.886719 17.203125 C 13.183594 16.695312 18.917969 17.925781 21.097656 17.710938 C 22.113281 17.566406 22.695312 16.984375 23.347656 16.984375 C 23.925781 16.984375 24.582031 17.273438 24.945312 17.636719 C 25.234375 18 25.453125 18.507812 25.378906 19.089844 C 25.304688 19.886719 24.507812 21.195312 23.78125 21.847656 C 23.203125 22.355469 22.257812 22.863281 21.605469 22.789062 C 21.023438 22.71875 20.589844 22.28125 20.082031 21.773438 C 19.355469 20.902344 18.703125 18.21875 17.976562 17.78125 C 17.613281 17.566406 17.105469 17.566406 16.816406 17.78125 C 16.234375 18.21875 16.453125 21.046875 15.726562 21.554688 C 15.21875 21.917969 13.984375 21.703125 13.765625 21.410156 C 13.546875 21.121094 14.203125 19.667969 14.566406 19.597656 C 14.925781 19.523438 15.945312 20.613281 15.945312 21.046875 C 15.945312 21.339844 15.507812 21.847656 15.21875 21.917969 C 14.855469 21.992188 14.054688 21.773438 13.839844 21.484375 C 13.621094 21.195312 13.621094 20.394531 13.839844 20.105469 C 13.984375 19.816406 14.492188 19.597656 14.855469 19.597656 C 15.144531 19.597656 15.652344 19.886719 15.796875 20.175781 C 15.945312 20.539062 15.945312 21.265625 15.726562 21.554688 C 15.507812 21.847656 14.78125 22.066406 14.417969 21.917969 C 14.054688 21.773438 13.695312 21.410156 13.621094 20.902344 C 13.402344 19.886719 14.273438 16.476562 15.289062 15.675781 C 16.089844 15.097656 17.683594 15.167969 18.628906 15.605469 C 19.71875 16.113281 21.023438 17.78125 21.386719 18.726562 C 21.605469 19.378906 20.953125 20.394531 21.242188 20.613281 C 21.53125 20.832031 23.566406 19.597656 23.492188 19.453125 C 23.417969 19.234375 20.296875 20.03125 18.484375 20.03125 C 16.234375 20.03125 12.894531 19.015625 10.933594 19.015625 C 9.703125 19.015625 8.46875 19.667969 7.816406 19.378906 C 7.378906 19.160156 7.015625 18.507812 7.015625 18.144531 C 7.015625 17.78125 7.886719 17.203125 7.886719 17.203125 " clip-rule="nonzero"/></clipPath><clipPath id="99ac4f950b"><path d="M 7.125 10.199219 L 12.777344 10.199219 L 12.777344 18.109375 L 7.125 18.109375 Z M 7.125 10.199219 " clip-rule="nonzero"/></clipPath><clipPath id="01de09d05e"><path d="M 10.5 10.304688 C 12.460938 13.933594 12.75 15.605469 12.316406 16.183594 C 12.023438 16.546875 11.296875 16.765625 10.789062 16.621094 C 10.136719 16.476562 9.265625 15.675781 8.832031 14.878906 C 8.175781 13.789062 7.667969 10.453125 7.960938 10.304688 C 8.105469 10.234375 8.757812 10.816406 8.976562 11.324219 C 9.339844 12.121094 9.410156 13.644531 9.339844 14.804688 C 9.265625 15.894531 8.832031 17.925781 8.394531 18 C 8.03125 18.074219 7.234375 16.695312 7.160156 16.113281 C 7.160156 15.675781 7.816406 14.953125 7.742188 14.878906 C 7.667969 14.878906 7.160156 15.316406 7.160156 15.386719 C 7.160156 15.460938 7.667969 15.023438 7.886719 15.097656 C 8.25 15.316406 8.902344 17.636719 8.683594 17.855469 C 8.613281 17.925781 8.175781 17.855469 8.03125 17.636719 C 7.816406 17.203125 8.613281 15.824219 8.613281 14.804688 C 8.613281 13.574219 7.378906 11.175781 7.667969 10.667969 C 7.816406 10.453125 8.175781 10.378906 8.394531 10.523438 C 8.902344 10.816406 8.683594 13.5 9.339844 14.445312 C 9.847656 15.242188 11.226562 16.183594 11.589844 15.96875 C 12.023438 15.675781 11.589844 13.066406 11.152344 12.121094 C 10.863281 11.46875 9.847656 10.960938 9.917969 10.667969 C 9.917969 10.453125 10.5 10.304688 10.5 10.304688 " clip-rule="nonzero"/></clipPath><clipPath id="3e703b02c2"><path d="M 7.28125 11 L 11 11 L 11 16.359375 L 7.28125 16.359375 Z M 7.28125 11 " clip-rule="nonzero"/></clipPath><clipPath id="c7ff53b3ea"><path d="M 10.5 11.683594 C 10.789062 14.007812 10.5 14.152344 10.28125 14.082031 C 9.847656 13.933594 8.832031 11.683594 9.046875 11.25 C 9.121094 11.03125 9.628906 10.960938 9.773438 11.03125 C 9.992188 11.175781 9.992188 11.832031 10.066406 12.410156 C 10.136719 13.355469 10.066406 16.183594 9.773438 16.257812 C 9.410156 16.332031 7.453125 11.902344 7.742188 11.46875 C 7.816406 11.324219 8.324219 11.324219 8.46875 11.46875 C 8.832031 11.902344 7.960938 16.113281 7.886719 16.113281 C 7.886719 16.113281 7.816406 15.53125 7.886719 15.460938 C 7.960938 15.386719 8.46875 15.675781 8.46875 15.75 C 8.46875 15.824219 7.960938 16.113281 7.816406 16.039062 C 7.378906 15.75 7.304688 11.902344 7.742188 11.46875 C 7.960938 11.25 8.324219 11.324219 8.613281 11.539062 C 9.265625 12.046875 10.5 15.242188 10.28125 15.894531 C 10.210938 16.113281 9.917969 16.332031 9.773438 16.257812 C 9.339844 16.113281 8.683594 11.832031 9.046875 11.25 C 9.195312 11.03125 9.554688 10.960938 9.773438 11.03125 C 10.210938 11.25 11.007812 13.355469 10.863281 13.789062 C 10.789062 14.007812 10.425781 14.152344 10.28125 14.082031 C 9.992188 13.933594 9.554688 11.976562 9.773438 11.683594 C 9.917969 11.539062 10.5 11.683594 10.5 11.683594 " clip-rule="nonzero"/></clipPath><clipPath id="ad6ebb53f7"><path d="M 4.125 5.402344 L 23.671875 5.402344 L 23.671875 24.792969 L 4.125 24.792969 Z M 4.125 5.402344 " clip-rule="nonzero"/></clipPath><clipPath id="828e8ad214"><path d="M 9.195312 6.894531 C 16.960938 5.804688 19.28125 7.113281 20.515625 8.128906 C 21.460938 8.855469 21.894531 9.726562 22.402344 10.597656 C 22.839844 11.46875 23.273438 12.339844 23.347656 13.5 C 23.492188 15.097656 23.273438 17.78125 22.402344 19.453125 C 21.53125 21.121094 19.425781 22.789062 17.976562 23.589844 C 16.960938 24.167969 16.234375 24.386719 15.074219 24.386719 C 13.476562 24.460938 10.644531 23.804688 9.195312 23.082031 C 8.175781 22.574219 7.523438 21.847656 6.871094 21.121094 C 6.21875 20.324219 5.636719 19.597656 5.273438 18.507812 C 4.765625 16.984375 4.695312 14.082031 4.984375 12.484375 C 5.203125 11.324219 5.492188 10.597656 6.21875 9.652344 C 7.234375 8.347656 9.195312 6.605469 11.007812 6.023438 C 12.824219 5.445312 15.433594 5.660156 17.03125 6.023438 C 18.195312 6.316406 18.917969 6.675781 19.789062 7.476562 C 21.023438 8.566406 22.546875 10.960938 23.128906 12.484375 C 23.566406 13.574219 23.636719 14.371094 23.492188 15.53125 C 23.273438 17.128906 22.183594 19.816406 21.242188 21.121094 C 20.589844 22.066406 19.863281 22.5 18.917969 23.082031 C 17.757812 23.734375 16.089844 24.460938 14.636719 24.605469 C 13.183594 24.75 11.589844 24.675781 10.136719 24.023438 C 8.394531 23.226562 6.074219 20.832031 5.203125 19.523438 C 4.695312 18.726562 4.546875 18.289062 4.402344 17.417969 C 4.183594 16.183594 4.257812 14.082031 4.476562 12.847656 C 4.621094 11.976562 4.839844 11.46875 5.273438 10.742188 C 5.925781 9.726562 8.324219 7.402344 8.324219 7.402344 " clip-rule="nonzero"/></clipPath><clipPath id="06343c5478"><path d="M 4.375 5 L 24.492188 5 L 24.492188 24.542969 L 4.375 24.542969 Z M 4.375 5 " clip-rule="nonzero"/></clipPath><clipPath id="68d69ebc49"><path d="M 8.832031 7.113281 C 14.347656 5.082031 17.03125 5.371094 18.554688 5.878906 C 19.644531 6.242188 20.371094 6.675781 21.167969 7.476562 C 22.257812 8.636719 23.710938 10.886719 24.074219 12.773438 C 24.433594 14.660156 23.855469 17.203125 23.273438 18.726562 C 22.839844 19.816406 22.183594 20.46875 21.460938 21.195312 C 20.734375 21.917969 20.082031 22.574219 18.992188 23.007812 C 17.46875 23.589844 14.636719 24.023438 13.039062 23.804688 C 11.878906 23.660156 11.082031 23.371094 10.136719 22.71875 C 8.832031 21.773438 6.871094 19.667969 6.144531 18.21875 C 5.636719 17.203125 5.417969 16.402344 5.417969 15.242188 C 5.417969 13.644531 6.144531 10.886719 6.871094 9.433594 C 7.378906 8.417969 7.960938 7.765625 8.902344 7.113281 C 10.210938 6.167969 12.96875 5.226562 14.566406 5.082031 C 15.726562 4.933594 16.523438 5.082031 17.613281 5.515625 C 19.136719 6.097656 21.386719 7.476562 22.476562 9 C 23.566406 10.523438 24.363281 12.917969 24.289062 14.804688 C 24.21875 16.695312 23.128906 19.160156 22.183594 20.46875 C 21.53125 21.410156 20.734375 21.917969 19.863281 22.5 C 18.992188 23.082031 18.046875 23.734375 16.960938 24.023438 C 15.652344 24.386719 13.695312 24.460938 12.460938 24.386719 C 11.589844 24.316406 11.007812 24.167969 10.210938 23.804688 C 9.121094 23.296875 7.597656 22.355469 6.652344 21.121094 C 5.492188 19.523438 4.546875 16.695312 4.476562 14.734375 C 4.402344 13.136719 4.984375 11.683594 5.710938 10.378906 C 6.433594 9.144531 8.832031 7.113281 8.832031 7.113281 " clip-rule="nonzero"/></clipPath><clipPath id="21b0ba7ec6"><path d="M 6 8 L 26.921875 8 L 26.921875 21 L 6 21 Z M 6 8 " clip-rule="nonzero"/></clipPath><clipPath id="f10055fd7f"><path d="M 19 10 L 26.921875 10 L 26.921875 21 L 19 21 Z M 19 10 " clip-rule="nonzero"/></clipPath><clipPath id="98537beb56"><path d="M 25 17 L 26.921875 17 L 26.921875 20 L 25 20 Z M 25 17 " clip-rule="nonzero"/></clipPath><clipPath id="70284cd1de"><path d="M 8 18 L 25 18 L 25 22.613281 L 8 22.613281 Z M 8 18 " clip-rule="nonzero"/></clipPath><clipPath id="c9aed1c6ff"><path d="M 8 19 L 25 19 L 25 22.613281 L 8 22.613281 Z M 8 19 " clip-rule="nonzero"/></clipPath><clipPath id="489619544e"><path d="M 8 6.644531 L 18 6.644531 L 18 15 L 8 15 Z M 8 6.644531 " clip-rule="nonzero"/></clipPath><clipPath id="5cecf1b230"><path d="M 11 6.644531 L 15 6.644531 L 15 10 L 11 10 Z M 11 6.644531 " clip-rule="nonzero"/></clipPath><clipPath id="990dad13d8"><path d="M 2.242188 6.644531 L 26.921875 6.644531 L 26.921875 22.613281 L 2.242188 22.613281 Z M 2.242188 6.644531 " clip-rule="nonzero"/></clipPath><clipPath id="7b568c4d3c"><path d="M 7.144531 5 L 19.480469 5 L 19.480469 17 L 7.144531 17 Z M 7.144531 5 " clip-rule="nonzero"/></clipPath><clipPath id="847e2f19e4"><path d="M 12 5 L 19.480469 5 L 19.480469 12 L 12 12 Z M 12 5 " clip-rule="nonzero"/></clipPath><clipPath id="0e6c125091"><path d="M 7.144531 6 L 15 6 L 15 17 L 7.144531 17 Z M 7.144531 6 " clip-rule="nonzero"/></clipPath><clipPath id="eed6575477"><path d="M 7.144531 4.6875 L 19.480469 4.6875 L 19.480469 17.023438 L 7.144531 17.023438 Z M 7.144531 4.6875 " clip-rule="nonzero"/></clipPath></defs><g clip-path="url(#2daffc8fb8)"><path fill="#f6f0e0" d="M 29.082031 14.371094 C 29.082031 15.296875 28.992188 16.210938 28.8125 17.117188 C 28.632812 18.023438 28.363281 18.90625 28.011719 19.761719 C 27.65625 20.613281 27.222656 21.425781 26.710938 22.195312 C 26.195312 22.964844 25.613281 23.675781 24.957031 24.328125 C 24.304688 24.984375 23.59375 25.566406 22.824219 26.082031 C 22.054688 26.59375 21.242188 27.027344 20.390625 27.382812 C 19.535156 27.734375 18.65625 28.003906 17.746094 28.183594 C 16.839844 28.363281 15.925781 28.453125 15 28.453125 C 14.074219 28.453125 13.160156 28.363281 12.253906 28.183594 C 11.34375 28.003906 10.464844 27.734375 9.609375 27.382812 C 8.757812 27.027344 7.945312 26.59375 7.175781 26.082031 C 6.40625 25.566406 5.695312 24.984375 5.042969 24.328125 C 4.386719 23.675781 3.804688 22.964844 3.289062 22.195312 C 2.777344 21.425781 2.34375 20.613281 1.988281 19.761719 C 1.636719 18.90625 1.367188 18.023438 1.1875 17.117188 C 1.007812 16.210938 0.917969 15.296875 0.917969 14.371094 C 0.917969 13.445312 1.007812 12.53125 1.1875 11.625 C 1.367188 10.714844 1.636719 9.835938 1.988281 8.980469 C 2.34375 8.128906 2.777344 7.316406 3.289062 6.546875 C 3.804688 5.777344 4.386719 5.066406 5.042969 4.414062 C 5.695312 3.757812 6.40625 3.175781 7.175781 2.660156 C 7.945312 2.148438 8.757812 1.714844 9.609375 1.359375 C 10.464844 1.007812 11.34375 0.738281 12.253906 0.558594 C 13.160156 0.378906 14.074219 0.289062 15 0.289062 C 15.925781 0.289062 16.839844 0.378906 17.746094 0.558594 C 18.65625 0.738281 19.535156 1.007812 20.390625 1.359375 C 21.242188 1.714844 22.054688 2.148438 22.824219 2.660156 C 23.59375 3.175781 24.304688 3.757812 24.957031 4.414062 C 25.613281 5.066406 26.195312 5.777344 26.710938 6.546875 C 27.222656 7.316406 27.65625 8.128906 28.011719 8.980469 C 28.363281 9.835938 28.632812 10.714844 28.8125 11.625 C 28.992188 12.53125 29.082031 13.445312 29.082031 14.371094 Z M 29.082031 14.371094 " fill-opacity="1" fill-rule="nonzero"/></g><path fill="#009bd1" d="M 6.75 8.160156 L 23.25 8.160156 C 23.449219 8.160156 23.640625 8.199219 23.824219 8.273438 C 24.007812 8.351562 24.171875 8.457031 24.3125 8.597656 C 24.453125 8.738281 24.558594 8.902344 24.636719 9.085938 C 24.710938 9.269531 24.75 9.460938 24.75 9.660156 L 24.75 19.082031 C 24.75 19.28125 24.710938 19.472656 24.636719 19.65625 C 24.558594 19.839844 24.453125 20.003906 24.3125 20.144531 C 24.171875 20.285156 24.007812 20.390625 23.824219 20.46875 C 23.640625 20.542969 23.449219 20.582031 23.25 20.582031 L 6.75 20.582031 C 6.550781 20.582031 6.359375 20.542969 6.175781 20.46875 C 5.992188 20.390625 5.828125 20.285156 5.6875 20.144531 C 5.546875 20.003906 5.441406 19.839844 5.363281 19.65625 C 5.289062 19.472656 5.25 19.28125 5.25 19.082031 L 5.25 9.660156 C 5.25 9.460938 5.289062 9.269531 5.363281 9.085938 C 5.441406 8.902344 5.546875 8.738281 5.6875 8.597656 C 5.828125 8.457031 5.992188 8.351562 6.175781 8.273438 C 6.359375 8.199219 6.550781 8.160156 6.75 8.160156 Z M 6.75 8.160156 " fill-opacity="1" fill-rule="nonzero"/><path fill="#f9cc4b" d="M 19.996094 17.113281 L 22.625 17.113281 C 22.730469 17.113281 22.824219 17.152344 22.902344 17.230469 C 22.976562 17.308594 23.015625 17.398438 23.015625 17.507812 L 23.015625 18.457031 C 23.015625 18.5625 22.976562 18.65625 22.902344 18.734375 C 22.824219 18.808594 22.730469 18.847656 22.625 18.847656 L 19.996094 18.847656 C 19.886719 18.847656 19.796875 18.808594 19.71875 18.734375 C 19.640625 18.65625 19.605469 18.5625 19.605469 18.457031 L 19.605469 17.507812 C 19.605469 17.398438 19.640625 17.308594 19.71875 17.230469 C 19.796875 17.152344 19.886719 17.113281 19.996094 17.113281 Z M 19.996094 17.113281 " fill-opacity="1" fill-rule="nonzero"/><path fill="#414785" d="M 5.25 11.011719 L 24.75 11.011719 L 24.75 13.179688 L 5.25 13.179688 Z M 5.25 11.011719 " fill-opacity="1" fill-rule="nonzero"/><g clip-path="url(#a7dd7ad3a9)"><path fill="#0b2230" d="M 23.25 7.726562 L 6.75 7.726562 C 6.492188 7.726562 6.246094 7.777344 6.011719 7.875 C 5.773438 7.972656 5.566406 8.113281 5.382812 8.292969 C 5.203125 8.472656 5.0625 8.683594 4.964844 8.917969 C 4.867188 9.15625 4.816406 9.402344 4.816406 9.660156 L 4.816406 19.082031 C 4.816406 19.339844 4.867188 19.585938 4.964844 19.820312 C 5.0625 20.058594 5.203125 20.269531 5.382812 20.449219 C 5.566406 20.628906 5.773438 20.769531 6.011719 20.867188 C 6.246094 20.964844 6.492188 21.015625 6.75 21.015625 L 23.25 21.015625 C 23.507812 21.015625 23.753906 20.964844 23.988281 20.867188 C 24.226562 20.769531 24.433594 20.628906 24.617188 20.449219 C 24.796875 20.269531 24.9375 20.058594 25.035156 19.820312 C 25.132812 19.585938 25.183594 19.339844 25.183594 19.082031 L 25.183594 9.660156 C 25.183594 9.402344 25.132812 9.15625 25.035156 8.917969 C 24.9375 8.683594 24.796875 8.472656 24.617188 8.292969 C 24.433594 8.113281 24.226562 7.972656 23.988281 7.875 C 23.753906 7.777344 23.507812 7.726562 23.25 7.726562 Z M 5.683594 11.445312 L 24.316406 11.445312 L 24.316406 12.746094 L 5.683594 12.746094 Z M 6.75 8.59375 L 23.25 8.59375 C 23.390625 8.59375 23.527344 8.621094 23.660156 8.675781 C 23.789062 8.730469 23.902344 8.804688 24.003906 8.90625 C 24.105469 9.003906 24.179688 9.121094 24.234375 9.25 C 24.289062 9.382812 24.316406 9.515625 24.316406 9.660156 L 24.316406 10.578125 L 5.683594 10.578125 L 5.683594 9.660156 C 5.683594 9.515625 5.710938 9.382812 5.765625 9.25 C 5.820312 9.121094 5.894531 9.003906 5.996094 8.90625 C 6.097656 8.804688 6.210938 8.730469 6.339844 8.675781 C 6.472656 8.621094 6.609375 8.59375 6.75 8.59375 Z M 23.25 20.148438 L 6.75 20.148438 C 6.609375 20.148438 6.472656 20.121094 6.339844 20.066406 C 6.210938 20.011719 6.097656 19.9375 5.996094 19.835938 C 5.894531 19.738281 5.820312 19.621094 5.765625 19.492188 C 5.710938 19.359375 5.683594 19.222656 5.683594 19.082031 L 5.683594 13.613281 L 24.316406 13.613281 L 24.316406 19.082031 C 24.316406 19.222656 24.289062 19.359375 24.234375 19.492188 C 24.179688 19.621094 24.105469 19.734375 24.003906 19.835938 C 23.902344 19.9375 23.789062 20.011719 23.660156 20.066406 C 23.527344 20.121094 23.390625 20.148438 23.25 20.148438 Z M 22.625 16.683594 L 19.996094 16.683594 C 19.769531 16.683594 19.574219 16.761719 19.414062 16.925781 C 19.25 17.085938 19.171875 17.28125 19.171875 17.507812 L 19.171875 18.457031 C 19.171875 18.683594 19.25 18.878906 19.414062 19.039062 C 19.574219 19.199219 19.769531 19.28125 19.996094 19.28125 L 22.625 19.28125 C 22.851562 19.28125 23.046875 19.199219 23.207031 19.039062 C 23.367188 18.878906 23.449219 18.683594 23.449219 18.457031 L 23.449219 17.507812 C 23.449219 17.28125 23.367188 17.085938 23.207031 16.925781 C 23.046875 16.761719 22.851562 16.683594 22.625 16.683594 Z M 22.582031 18.414062 L 20.039062 18.414062 L 20.039062 17.546875 L 22.582031 17.546875 Z M 8.011719 18.847656 C 8.011719 18.957031 7.957031 19.011719 7.851562 19.011719 L 6.984375 19.011719 C 6.875 19.011719 6.820312 18.957031 6.820312 18.847656 C 6.820312 18.738281 6.875 18.6875 6.984375 18.6875 L 7.851562 18.6875 C 7.957031 18.6875 8.011719 18.738281 8.011719 18.847656 Z M 10.179688 18.847656 C 10.179688 18.957031 10.125 19.011719 10.015625 19.011719 L 9.148438 19.011719 C 9.042969 19.011719 8.988281 18.957031 8.988281 18.847656 C 8.988281 18.738281 9.042969 18.6875 9.148438 18.6875 L 10.015625 18.6875 C 10.125 18.6875 10.179688 18.738281 10.179688 18.847656 Z M 15 28.886719 C 14.046875 28.886719 13.101562 28.792969 12.167969 28.609375 C 11.234375 28.421875 10.324219 28.148438 9.445312 27.78125 C 8.5625 27.417969 7.726562 26.96875 6.933594 26.441406 C 6.144531 25.910156 5.410156 25.308594 4.734375 24.636719 C 4.0625 23.960938 3.460938 23.226562 2.929688 22.4375 C 2.402344 21.644531 1.953125 20.804688 1.589844 19.925781 C 1.222656 19.046875 0.949219 18.136719 0.761719 17.203125 C 0.578125 16.269531 0.484375 15.324219 0.484375 14.371094 C 0.484375 13.417969 0.578125 12.472656 0.761719 11.539062 C 0.949219 10.605469 1.222656 9.695312 1.589844 8.816406 C 1.953125 7.933594 2.402344 7.097656 2.929688 6.304688 C 3.460938 5.515625 4.0625 4.78125 4.734375 4.105469 C 5.410156 3.433594 6.144531 2.832031 6.933594 2.300781 C 7.726562 1.773438 8.5625 1.324219 9.445312 0.960938 C 10.324219 0.59375 11.234375 0.320312 12.167969 0.132812 C 13.101562 -0.0507812 14.046875 -0.144531 15 -0.144531 C 15.953125 -0.144531 16.898438 -0.0507812 17.832031 0.132812 C 18.765625 0.320312 19.675781 0.59375 20.554688 0.960938 C 21.4375 1.324219 22.273438 1.773438 23.066406 2.300781 C 23.855469 2.832031 24.589844 3.433594 25.265625 4.105469 C 25.9375 4.78125 26.539062 5.515625 27.070312 6.304688 C 27.597656 7.097656 28.046875 7.933594 28.410156 8.816406 C 28.777344 9.695312 29.050781 10.605469 29.238281 11.539062 C 29.421875 12.472656 29.515625 13.417969 29.515625 14.371094 C 29.515625 15.324219 29.421875 16.265625 29.234375 17.203125 C 29.046875 18.136719 28.773438 19.042969 28.40625 19.921875 C 28.042969 20.804688 27.59375 21.640625 27.066406 22.433594 C 26.535156 23.222656 25.933594 23.957031 25.257812 24.628906 C 24.585938 25.304688 23.851562 25.90625 23.0625 26.4375 C 22.269531 26.964844 21.433594 27.414062 20.550781 27.777344 C 19.671875 28.144531 18.765625 28.417969 17.832031 28.605469 C 16.894531 28.792969 15.953125 28.886719 15 28.886719 Z M 15 0.722656 C 14.105469 0.722656 13.214844 0.808594 12.335938 0.984375 C 11.457031 1.160156 10.605469 1.417969 9.777344 1.761719 C 8.949219 2.101562 8.160156 2.523438 7.417969 3.023438 C 6.671875 3.519531 5.980469 4.085938 5.347656 4.71875 C 4.714844 5.351562 4.148438 6.042969 3.652344 6.789062 C 3.152344 7.53125 2.734375 8.320312 2.390625 9.148438 C 2.046875 9.976562 1.789062 10.828125 1.613281 11.707031 C 1.4375 12.585938 1.351562 13.476562 1.351562 14.371094 C 1.351562 15.265625 1.4375 16.15625 1.613281 17.035156 C 1.789062 17.914062 2.046875 18.765625 2.390625 19.59375 C 2.734375 20.421875 3.152344 21.210938 3.652344 21.953125 C 4.148438 22.699219 4.714844 23.390625 5.347656 24.023438 C 5.980469 24.65625 6.671875 25.222656 7.417969 25.71875 C 8.160156 26.21875 8.949219 26.636719 9.777344 26.980469 C 10.605469 27.324219 11.457031 27.582031 12.335938 27.757812 C 13.214844 27.933594 14.105469 28.019531 15 28.019531 C 15.894531 28.019531 16.785156 27.933594 17.664062 27.757812 C 18.542969 27.582031 19.394531 27.324219 20.222656 26.980469 C 21.050781 26.636719 21.839844 26.21875 22.582031 25.71875 C 23.328125 25.222656 24.019531 24.65625 24.652344 24.023438 C 25.285156 23.390625 25.851562 22.699219 26.347656 21.953125 C 26.847656 21.210938 27.265625 20.421875 27.609375 19.59375 C 27.953125 18.765625 28.210938 17.914062 28.386719 17.035156 C 28.5625 16.15625 28.648438 15.265625 28.648438 14.371094 C 28.648438 13.476562 28.558594 12.585938 28.382812 11.710938 C 28.210938 10.832031 27.949219 9.976562 27.605469 9.148438 C 27.261719 8.324219 26.84375 7.535156 26.34375 6.792969 C 25.847656 6.046875 25.28125 5.355469 24.648438 4.722656 C 24.011719 4.089844 23.324219 3.523438 22.578125 3.027344 C 21.835938 2.527344 21.046875 2.109375 20.222656 1.765625 C 19.394531 1.421875 18.539062 1.160156 17.660156 0.984375 C 16.785156 0.8125 15.894531 0.722656 15 0.722656 Z M 15 0.722656 " fill-opacity="1" fill-rule="nonzero"/></g><g clip-path="url(#bb3a1e61ae)"><g clip-path="url(#77866c235d)"><path fill="#f6f0e0" d="M -0.0976562 3.265625 L 29.296875 3.265625 L 29.296875 25.621094 L -0.0976562 25.621094 Z M -0.0976562 3.265625 " fill-opacity="1" fill-rule="nonzero"/></g></g><g clip-path="url(#7d459834eb)"><g clip-path="url(#1bbc729141)"><path fill="#f6f0e0" d="M 4.113281 12.703125 L 28.28125 12.703125 L 28.28125 25.695312 L 4.113281 25.695312 Z M 4.113281 12.703125 " fill-opacity="1" fill-rule="nonzero"/></g></g><g clip-path="url(#99ac4f950b)"><g clip-path="url(#01de09d05e)"><path fill="#2d90eb" d="M 4.257812 7.402344 L 15.21875 7.402344 L 15.21875 20.902344 L 4.257812 20.902344 Z M 4.257812 7.402344 " fill-opacity="1" fill-rule="nonzero"/></g></g><g clip-path="url(#3e703b02c2)"><g clip-path="url(#c7ff53b3ea)"><path fill="#f6f0e0" d="M 4.839844 8.128906 L 13.765625 8.128906 L 13.765625 19.160156 L 4.839844 19.160156 Z M 4.839844 8.128906 " fill-opacity="1" fill-rule="nonzero"/></g></g><g clip-path="url(#ad6ebb53f7)"><g clip-path="url(#828e8ad214)"><path fill="#f6f0e0" d="M 1.5 2.683594 L 26.394531 2.683594 L 26.394531 27.507812 L 1.5 27.507812 Z M 1.5 2.683594 " fill-opacity="1" fill-rule="nonzero"/></g></g><g clip-path="url(#06343c5478)"><g clip-path="url(#68d69ebc49)"><path fill="#f6f0e0" d="M 1.574219 2.175781 L 27.195312 2.175781 L 27.195312 27.289062 L 1.574219 27.289062 Z M 1.574219 2.175781 " fill-opacity="1" fill-rule="nonzero"/></g></g><g clip-path="url(#21b0ba7ec6)"><path fill="#42a5f5" d="M 22.503906 20.5625 L 7.390625 20.5625 C 6.953125 20.5625 6.59375 20.207031 6.59375 19.773438 L 6.59375 9.371094 C 6.59375 8.9375 6.953125 8.582031 7.390625 8.582031 L 18.996094 8.582031 C 19.433594 8.582031 19.792969 8.9375 19.792969 9.371094 L 19.792969 10.53125 L 22.449219 10.53125 C 22.804688 10.53125 23.109375 10.664062 23.347656 10.925781 L 26.214844 14.019531 C 26.425781 14.253906 26.53125 14.523438 26.53125 14.835938 L 26.53125 19.773438 C 26.53125 20.207031 26.175781 20.5625 25.734375 20.5625 Z M 22.503906 20.5625 " fill-opacity="1" fill-rule="evenodd"/></g><path fill="#2d90f1" d="M 18.824219 17.421875 L 19.792969 17.421875 L 19.792969 20.5625 L 18.824219 20.5625 Z M 18.824219 17.421875 " fill-opacity="1" fill-rule="evenodd"/><path fill="#64b5f6" d="M 19.792969 17.9375 L 6.59375 17.9375 L 6.59375 9.371094 C 6.59375 8.9375 6.953125 8.582031 7.390625 8.582031 L 18.996094 8.582031 C 19.433594 8.582031 19.792969 8.9375 19.792969 9.371094 Z M 19.792969 17.9375 " fill-opacity="1" fill-rule="evenodd"/><path fill="#42a5f5" d="M 19.792969 17.9375 L 18.824219 17.9375 L 18.824219 9.371094 C 18.824219 8.9375 18.464844 8.582031 18.027344 8.582031 L 18.996094 8.582031 C 19.433594 8.582031 19.792969 8.9375 19.792969 9.371094 Z M 19.792969 17.9375 " fill-opacity="1" fill-rule="evenodd"/><g clip-path="url(#f10055fd7f)"><path fill="#ffda2d" d="M 19.792969 10.53125 L 19.792969 20.5625 L 25.734375 20.5625 C 26.175781 20.5625 26.53125 20.207031 26.53125 19.773438 L 26.53125 14.835938 C 26.53125 14.523438 26.425781 14.253906 26.214844 14.019531 L 23.347656 10.925781 C 23.109375 10.664062 22.804688 10.53125 22.449219 10.53125 Z M 19.792969 10.53125 " fill-opacity="1" fill-rule="evenodd"/><path fill="#ffc700" d="M 19.792969 10.53125 L 19.792969 20.5625 L 25.734375 20.5625 C 26.109375 20.5625 26.421875 20.308594 26.507812 19.964844 C 26.453125 19.976562 26.394531 19.980469 26.335938 19.980469 L 20.394531 19.980469 L 20.394531 10.53125 Z M 19.792969 10.53125 " fill-opacity="1" fill-rule="evenodd"/></g><path fill="#e6f8ff" d="M 25.617188 15.34375 L 25.617188 14.835938 C 25.617188 14.75 25.59375 14.695312 25.535156 14.632812 L 22.671875 11.535156 C 22.605469 11.464844 22.546875 11.4375 22.449219 11.4375 L 20.832031 11.4375 L 20.832031 15.34375 Z M 25.617188 15.34375 " fill-opacity="1" fill-rule="evenodd"/><path fill="#d0f1ff" d="M 25.617188 15.34375 L 25.617188 14.835938 C 25.617188 14.75 25.59375 14.695312 25.535156 14.632812 L 22.671875 11.535156 C 22.605469 11.464844 22.546875 11.4375 22.449219 11.4375 L 20.832031 11.4375 L 20.832031 11.917969 L 21.964844 11.917969 C 22.0625 11.917969 22.121094 11.945312 22.1875 12.015625 L 25.050781 15.113281 C 25.113281 15.175781 25.132812 15.226562 25.132812 15.3125 L 25.132812 15.34375 Z M 25.617188 15.34375 " fill-opacity="1" fill-rule="evenodd"/><g clip-path="url(#98537beb56)"><path fill="#fdb800" d="M 26.53125 17.878906 L 26.53125 19.101562 L 25.773438 19.101562 C 25.617188 19.101562 25.492188 18.976562 25.492188 18.820312 L 25.492188 18.15625 C 25.492188 18.003906 25.617188 17.878906 25.773438 17.878906 Z M 26.53125 17.878906 " fill-opacity="1" fill-rule="evenodd"/><path fill="#f4a40e" d="M 26.53125 17.878906 L 26.53125 18.0625 L 25.976562 18.0625 C 25.824219 18.0625 25.695312 18.1875 25.695312 18.339844 L 25.695312 19.003906 C 25.695312 19.035156 25.699219 19.066406 25.710938 19.09375 C 25.585938 19.066406 25.492188 18.953125 25.492188 18.820312 L 25.492188 18.15625 C 25.492188 18.003906 25.617188 17.878906 25.773438 17.878906 Z M 26.53125 17.878906 " fill-opacity="1" fill-rule="evenodd"/></g><g clip-path="url(#70284cd1de)"><path fill="#465759" d="M 22.863281 18.953125 C 23.761719 18.953125 24.492188 19.671875 24.492188 20.5625 C 24.492188 21.453125 23.761719 22.171875 22.863281 22.171875 C 21.964844 22.171875 21.234375 21.453125 21.234375 20.5625 C 21.234375 19.671875 21.964844 18.953125 22.863281 18.953125 Z M 13.996094 18.953125 C 14.894531 18.953125 15.621094 19.671875 15.621094 20.5625 C 15.621094 21.453125 14.894531 22.171875 13.996094 22.171875 C 13.097656 22.171875 12.367188 21.453125 12.367188 20.5625 C 12.367188 19.671875 13.097656 18.953125 13.996094 18.953125 Z M 9.808594 18.953125 C 10.707031 18.953125 11.4375 19.671875 11.4375 20.5625 C 11.4375 21.453125 10.707031 22.171875 9.808594 22.171875 C 8.910156 22.171875 8.179688 21.453125 8.179688 20.5625 C 8.179688 19.671875 8.910156 18.953125 9.808594 18.953125 Z M 9.808594 18.953125 " fill-opacity="1" fill-rule="evenodd"/></g><g clip-path="url(#c9aed1c6ff)"><path fill="#3a484a" d="M 23.8125 19.257812 C 24.222656 19.546875 24.492188 20.023438 24.492188 20.5625 C 24.492188 21.453125 23.761719 22.171875 22.863281 22.171875 C 22.328125 22.171875 21.851562 21.914062 21.554688 21.519531 C 21.824219 21.710938 22.152344 21.824219 22.503906 21.824219 C 23.40625 21.824219 24.132812 21.101562 24.132812 20.214844 C 24.132812 19.855469 24.015625 19.523438 23.8125 19.257812 Z M 14.945312 19.257812 C 15.355469 19.546875 15.625 20.023438 15.625 20.5625 C 15.625 21.453125 14.894531 22.171875 13.996094 22.171875 C 13.460938 22.171875 12.984375 21.914062 12.6875 21.519531 C 12.953125 21.710938 13.28125 21.824219 13.636719 21.824219 C 14.535156 21.824219 15.265625 21.101562 15.265625 20.214844 C 15.265625 19.855469 15.148438 19.523438 14.945312 19.257812 Z M 10.757812 19.257812 C 11.167969 19.546875 11.4375 20.023438 11.4375 20.5625 C 11.4375 21.453125 10.707031 22.171875 9.808594 22.171875 C 9.273438 22.171875 8.796875 21.914062 8.5 21.519531 C 8.765625 21.710938 9.097656 21.824219 9.449219 21.824219 C 10.351562 21.824219 11.078125 21.101562 11.078125 20.214844 C 11.078125 19.855469 10.960938 19.523438 10.757812 19.257812 Z M 10.757812 19.257812 " fill-opacity="1" fill-rule="evenodd"/></g><path fill="#b4d2d7" d="M 13.996094 19.9375 C 13.648438 19.9375 13.363281 20.21875 13.363281 20.5625 C 13.363281 20.90625 13.648438 21.1875 13.996094 21.1875 C 14.34375 21.1875 14.625 20.90625 14.625 20.5625 C 14.625 20.21875 14.34375 19.9375 13.996094 19.9375 Z M 22.863281 19.9375 C 22.515625 19.9375 22.230469 20.21875 22.230469 20.5625 C 22.230469 20.90625 22.515625 21.1875 22.863281 21.1875 C 23.210938 21.1875 23.492188 20.90625 23.492188 20.5625 C 23.492188 20.21875 23.210938 19.9375 22.863281 19.9375 Z M 9.808594 19.9375 C 9.460938 19.9375 9.175781 20.21875 9.175781 20.5625 C 9.175781 20.90625 9.460938 21.1875 9.808594 21.1875 C 10.15625 21.1875 10.4375 20.90625 10.4375 20.5625 C 10.4375 20.21875 10.15625 19.9375 9.808594 19.9375 Z M 9.808594 19.9375 " fill-opacity="1" fill-rule="evenodd"/><path fill="#9bb9c3" d="M 13.996094 19.9375 C 13.648438 19.9375 13.363281 20.21875 13.363281 20.5625 C 13.363281 20.777344 13.472656 20.964844 13.640625 21.078125 C 13.5625 20.976562 13.515625 20.847656 13.515625 20.707031 C 13.515625 20.363281 13.800781 20.085938 14.148438 20.085938 C 14.28125 20.085938 14.402344 20.125 14.503906 20.191406 C 14.386719 20.039062 14.203125 19.9375 13.996094 19.9375 Z M 22.863281 19.9375 C 22.515625 19.9375 22.230469 20.21875 22.230469 20.5625 C 22.230469 20.777344 22.339844 20.964844 22.507812 21.078125 C 22.429688 20.976562 22.386719 20.847656 22.386719 20.707031 C 22.386719 20.363281 22.667969 20.085938 23.015625 20.085938 C 23.148438 20.085938 23.269531 20.125 23.371094 20.191406 C 23.257812 20.039062 23.070312 19.9375 22.863281 19.9375 Z M 9.808594 19.9375 C 9.460938 19.9375 9.175781 20.21875 9.175781 20.5625 C 9.175781 20.777344 9.285156 20.964844 9.453125 21.078125 C 9.375 20.976562 9.332031 20.847656 9.332031 20.707031 C 9.332031 20.363281 9.613281 20.085938 9.960938 20.085938 C 10.09375 20.085938 10.214844 20.125 10.316406 20.191406 C 10.199219 20.039062 10.015625 19.9375 9.808594 19.9375 Z M 9.808594 19.9375 " fill-opacity="1" fill-rule="evenodd"/><g clip-path="url(#489619544e)"><path fill="#da8c36" d="M 9.199219 6.96875 L 17.1875 6.96875 C 17.457031 6.96875 17.675781 7.183594 17.675781 7.453125 L 17.675781 14.152344 C 17.675781 14.417969 17.457031 14.632812 17.1875 14.632812 L 9.199219 14.632812 C 8.929688 14.632812 8.710938 14.417969 8.710938 14.152344 L 8.710938 7.453125 C 8.710938 7.183594 8.929688 6.96875 9.199219 6.96875 Z M 9.199219 6.96875 " fill-opacity="1" fill-rule="evenodd"/><path fill="#c97629" d="M 17.078125 6.96875 L 17.1875 6.96875 C 17.457031 6.96875 17.675781 7.183594 17.675781 7.453125 L 17.675781 14.152344 C 17.675781 14.417969 17.457031 14.632812 17.1875 14.632812 L 9.199219 14.632812 C 8.929688 14.632812 8.710938 14.417969 8.710938 14.152344 L 8.710938 13.996094 L 16.585938 13.996094 C 16.855469 13.996094 17.078125 13.78125 17.078125 13.511719 Z M 17.078125 6.96875 " fill-opacity="1" fill-rule="evenodd"/></g><path fill="#ffda2d" d="M 12.136719 13.183594 L 10.371094 13.183594 C 10.265625 13.183594 10.175781 13.097656 10.175781 12.992188 L 10.175781 12.167969 C 10.175781 12.0625 10.265625 11.976562 10.371094 11.976562 L 12.136719 11.976562 C 12.242188 11.976562 12.332031 12.0625 12.332031 12.167969 L 12.332031 12.992188 C 12.332031 13.097656 12.242188 13.183594 12.136719 13.183594 Z M 12.136719 13.183594 " fill-opacity="1" fill-rule="evenodd"/><path fill="#ffc700" d="M 12.136719 13.183594 L 10.371094 13.183594 C 10.265625 13.183594 10.175781 13.097656 10.175781 12.992188 L 10.175781 12.886719 L 11.835938 12.886719 C 11.945312 12.886719 12.03125 12.800781 12.03125 12.695312 L 12.03125 11.976562 L 12.136719 11.976562 C 12.242188 11.976562 12.332031 12.0625 12.332031 12.167969 L 12.332031 12.992188 C 12.332031 13.097656 12.242188 13.183594 12.136719 13.183594 Z M 12.136719 13.183594 " fill-opacity="1" fill-rule="evenodd"/><g clip-path="url(#5cecf1b230)"><path fill="#ffda2d" d="M 11.742188 6.96875 L 14.644531 6.96875 L 14.644531 8.867188 C 14.644531 9.046875 14.429688 9.144531 14.289062 9.03125 L 13.328125 8.253906 C 13.25 8.1875 13.136719 8.1875 13.054688 8.253906 L 12.097656 9.03125 C 11.953125 9.144531 11.742188 9.046875 11.742188 8.867188 Z M 11.742188 6.96875 " fill-opacity="1" fill-rule="evenodd"/><path fill="#ffc700" d="M 14.332031 6.96875 L 14.644531 6.96875 L 14.644531 8.867188 C 14.644531 9.046875 14.429688 9.144531 14.289062 9.03125 L 13.980469 8.78125 C 14.121094 8.894531 14.332031 8.792969 14.332031 8.613281 Z M 13.328125 8.253906 C 13.25 8.1875 13.136719 8.1875 13.054688 8.253906 L 12.097656 9.03125 C 11.953125 9.144531 11.742188 9.046875 11.742188 8.867188 L 11.742188 8.808594 C 11.757812 8.800781 11.773438 8.789062 11.785156 8.78125 L 12.746094 8 C 12.824219 7.9375 12.9375 7.9375 13.019531 8 Z M 13.328125 8.253906 " fill-opacity="1" fill-rule="evenodd"/></g><g clip-path="url(#990dad13d8)"><path fill="#000000" d="M 11.945312 12.421875 L 10.5625 12.421875 L 10.5625 12.859375 L 11.945312 12.859375 Z M 12.71875 12.039062 L 12.71875 13.242188 C 12.71875 13.453125 12.542969 13.625 12.332031 13.625 L 10.175781 13.625 C 9.964844 13.625 9.789062 13.453125 9.789062 13.242188 L 9.789062 12.039062 C 9.789062 11.824219 9.964844 11.65625 10.175781 11.65625 L 12.332031 11.65625 C 12.542969 11.65625 12.71875 11.824219 12.71875 12.039062 Z M 14.238281 20.621094 C 14.238281 20.488281 14.128906 20.378906 13.996094 20.378906 C 13.859375 20.378906 13.75 20.488281 13.75 20.621094 C 13.75 20.753906 13.859375 20.863281 13.996094 20.863281 C 14.128906 20.863281 14.238281 20.753906 14.238281 20.621094 Z M 15.011719 20.621094 C 15.011719 21.175781 14.554688 21.628906 13.996094 21.628906 C 13.433594 21.628906 12.976562 21.175781 12.976562 20.621094 C 12.976562 20.066406 13.433594 19.617188 13.996094 19.617188 C 14.554688 19.617188 15.011719 20.066406 15.011719 20.621094 Z M 23.105469 20.621094 C 23.105469 20.488281 22.996094 20.378906 22.863281 20.378906 C 22.730469 20.378906 22.621094 20.488281 22.621094 20.621094 C 22.621094 20.753906 22.730469 20.863281 22.863281 20.863281 C 22.996094 20.863281 23.105469 20.753906 23.105469 20.621094 Z M 23.882812 20.621094 C 23.882812 21.175781 23.425781 21.628906 22.863281 21.628906 C 22.300781 21.628906 21.84375 21.175781 21.84375 20.621094 C 21.84375 20.066406 22.300781 19.617188 22.863281 19.617188 C 23.425781 19.617188 23.882812 20.066406 23.882812 20.621094 Z M 10.050781 20.621094 C 10.050781 20.488281 9.941406 20.378906 9.808594 20.378906 C 9.671875 20.378906 9.5625 20.488281 9.5625 20.621094 C 9.5625 20.753906 9.671875 20.863281 9.808594 20.863281 C 9.941406 20.863281 10.050781 20.753906 10.050781 20.621094 Z M 10.824219 20.621094 C 10.824219 21.175781 10.367188 21.628906 9.808594 21.628906 C 9.246094 21.628906 8.789062 21.175781 8.789062 20.621094 C 8.789062 20.066406 9.246094 19.617188 9.808594 19.617188 C 10.371094 19.617188 10.824219 20.066406 10.824219 20.621094 Z M 21.527344 16.261719 L 20.832031 16.261719 C 20.617188 16.261719 20.445312 16.433594 20.445312 16.644531 C 20.445312 16.855469 20.617188 17.027344 20.832031 17.027344 L 21.527344 17.027344 C 21.742188 17.027344 21.914062 16.855469 21.914062 16.644531 C 21.914062 16.433594 21.742188 16.261719 21.527344 16.261719 Z M 25.230469 14.925781 L 22.410156 11.882812 L 21.21875 11.878906 L 21.21875 15.019531 L 25.230469 15.019531 Z M 25.617188 15.785156 L 20.832031 15.785156 C 20.617188 15.785156 20.445312 15.613281 20.445312 15.402344 L 20.445312 11.5 C 20.445312 11.398438 20.484375 11.300781 20.558594 11.226562 C 20.628906 11.15625 20.730469 11.117188 20.832031 11.117188 L 22.449219 11.117188 C 22.652344 11.117188 22.820312 11.1875 22.957031 11.335938 L 25.820312 14.433594 C 25.945312 14.570312 26.003906 14.710938 26.003906 14.894531 L 26.003906 15.402344 C 26.003906 15.613281 25.828125 15.785156 25.617188 15.785156 Z M 26.144531 18.320312 L 25.878906 18.320312 L 25.878906 18.777344 L 26.144531 18.777344 Z M 26.144531 19.832031 L 26.144531 19.542969 L 25.773438 19.542969 C 25.40625 19.542969 25.105469 19.246094 25.105469 18.882812 L 25.105469 18.214844 C 25.105469 17.851562 25.40625 17.554688 25.773438 17.554688 L 26.144531 17.554688 L 26.144531 14.894531 C 26.144531 14.675781 26.078125 14.5 25.925781 14.339844 L 23.0625 11.242188 C 22.898438 11.0625 22.695312 10.972656 22.449219 10.972656 L 20.179688 10.972656 L 20.179688 20.238281 L 20.886719 20.238281 C 21.066406 19.324219 21.882812 18.628906 22.863281 18.628906 C 23.839844 18.628906 24.660156 19.324219 24.839844 20.238281 L 25.734375 20.238281 C 25.960938 20.238281 26.144531 20.058594 26.144531 19.832031 Z M 24.101562 20.621094 C 24.101562 21.296875 23.546875 21.847656 22.863281 21.847656 C 22.179688 21.847656 21.621094 21.296875 21.621094 20.621094 C 21.621094 19.945312 22.179688 19.394531 22.863281 19.394531 C 23.546875 19.394531 24.101562 19.945312 24.101562 20.621094 Z M 15.234375 20.621094 C 15.234375 21.296875 14.679688 21.847656 13.996094 21.847656 C 13.3125 21.847656 12.753906 21.296875 12.753906 20.621094 C 12.753906 19.945312 13.3125 19.394531 13.996094 19.394531 C 14.679688 19.394531 15.234375 19.945312 15.234375 20.621094 Z M 11.050781 20.621094 C 11.050781 21.296875 10.492188 21.847656 9.808594 21.847656 C 9.125 21.847656 8.566406 21.296875 8.566406 20.621094 C 8.566406 19.945312 9.125 19.394531 9.808594 19.394531 C 10.492188 19.394531 11.050781 19.945312 11.050781 20.621094 Z M 7.390625 20.238281 L 7.832031 20.238281 C 8.011719 19.324219 8.828125 18.628906 9.808594 18.628906 C 10.785156 18.628906 11.605469 19.324219 11.785156 20.238281 L 12.019531 20.238281 C 12.199219 19.324219 13.015625 18.628906 13.996094 18.628906 C 14.972656 18.628906 15.792969 19.324219 15.972656 20.238281 L 19.40625 20.238281 L 19.40625 18.378906 L 6.980469 18.378906 L 6.980469 19.832031 C 6.980469 20.058594 7.164062 20.238281 7.390625 20.238281 Z M 17.289062 7.511719 L 17.289062 14.210938 C 17.289062 14.265625 17.242188 14.3125 17.1875 14.3125 L 9.199219 14.3125 C 9.144531 14.3125 9.097656 14.265625 9.097656 14.210938 L 9.097656 7.511719 C 9.097656 7.457031 9.144531 7.410156 9.199219 7.410156 L 11.355469 7.410156 L 11.355469 8.925781 C 11.355469 9.160156 11.488281 9.367188 11.699219 9.464844 C 11.785156 9.503906 11.871094 9.523438 11.960938 9.523438 C 12.097656 9.523438 12.230469 9.476562 12.339844 9.386719 L 13.191406 8.695312 L 14.042969 9.386719 C 14.226562 9.535156 14.472656 9.566406 14.683594 9.464844 C 14.898438 9.367188 15.03125 9.160156 15.03125 8.925781 L 15.03125 7.410156 L 17.1875 7.410156 C 17.242188 7.410156 17.289062 7.457031 17.289062 7.511719 Z M 12.128906 8.570312 L 12.808594 8.015625 C 13.03125 7.835938 13.355469 7.835938 13.574219 8.015625 L 14.253906 8.570312 L 14.253906 7.410156 L 12.128906 7.410156 Z M 26.917969 14.894531 L 26.917969 19.832031 C 26.917969 20.480469 26.386719 21.003906 25.734375 21.003906 L 24.839844 21.003906 C 24.660156 21.921875 23.839844 22.613281 22.863281 22.613281 C 21.882812 22.613281 21.066406 21.921875 20.886719 21.003906 L 15.972656 21.003906 C 15.792969 21.921875 14.972656 22.613281 13.996094 22.613281 C 13.015625 22.613281 12.199219 21.921875 12.019531 21.003906 L 11.785156 21.003906 C 11.605469 21.921875 10.785156 22.613281 9.808594 22.613281 C 8.828125 22.613281 8.011719 21.921875 7.832031 21.003906 L 7.390625 21.003906 C 6.738281 21.003906 6.207031 20.480469 6.207031 19.832031 L 6.207031 14.679688 L 4.066406 14.679688 C 3.855469 14.679688 3.679688 14.507812 3.679688 14.296875 C 3.679688 14.082031 3.855469 13.914062 4.066406 13.914062 L 6.59375 13.914062 C 6.808594 13.914062 6.980469 14.082031 6.980469 14.296875 L 6.980469 17.613281 L 19.40625 17.613281 L 19.40625 9.429688 C 19.40625 9.207031 19.222656 9.027344 18.996094 9.027344 L 18.0625 9.027344 L 18.0625 14.210938 C 18.0625 14.6875 17.671875 15.078125 17.1875 15.078125 L 9.199219 15.078125 C 8.714844 15.078125 8.320312 14.6875 8.320312 14.210938 L 8.320312 9.027344 L 3.25 9.027344 C 3.035156 9.027344 2.863281 8.855469 2.863281 8.644531 C 2.863281 8.429688 3.035156 8.261719 3.25 8.261719 L 8.320312 8.261719 L 8.320312 7.511719 C 8.320312 7.03125 8.714844 6.644531 9.199219 6.644531 L 17.1875 6.644531 C 17.671875 6.644531 18.0625 7.03125 18.0625 7.511719 L 18.0625 8.261719 L 18.996094 8.261719 C 19.648438 8.261719 20.179688 8.785156 20.179688 9.429688 L 20.179688 10.207031 L 22.449219 10.207031 C 22.914062 10.207031 23.324219 10.386719 23.636719 10.726562 L 26.5 13.824219 C 26.777344 14.125 26.917969 14.484375 26.917969 14.894531 Z M 5.902344 12.410156 C 5.902344 12.199219 5.730469 12.027344 5.515625 12.027344 L 2.632812 12.027344 C 2.417969 12.027344 2.246094 12.199219 2.246094 12.410156 C 2.246094 12.621094 2.417969 12.792969 2.632812 12.792969 L 5.515625 12.792969 C 5.730469 12.792969 5.902344 12.621094 5.902344 12.410156 Z M 4.4375 10.910156 L 7.167969 10.910156 C 7.382812 10.910156 7.554688 10.738281 7.554688 10.527344 C 7.554688 10.316406 7.382812 10.144531 7.167969 10.144531 L 4.4375 10.144531 C 4.222656 10.144531 4.050781 10.316406 4.050781 10.527344 C 4.050781 10.738281 4.222656 10.910156 4.4375 10.910156 Z M 4.4375 10.910156 " fill-opacity="1" fill-rule="evenodd"/></g><g clip-path="url(#7b568c4d3c)"><path fill="#ffee58" d="M 19.097656 10.855469 C 19.097656 11.566406 17.941406 12.046875 17.6875 12.667969 C 17.417969 13.308594 17.886719 14.460938 17.402344 14.945312 C 16.917969 15.429688 15.765625 14.960938 15.125 15.226562 C 14.503906 15.484375 14.027344 16.640625 13.3125 16.640625 C 12.597656 16.640625 12.121094 15.484375 11.5 15.226562 C 10.859375 14.960938 9.707031 15.429688 9.222656 14.945312 C 8.738281 14.460938 9.207031 13.308594 8.941406 12.667969 C 8.683594 12.046875 7.527344 11.566406 7.527344 10.855469 C 7.527344 10.140625 8.683594 9.664062 8.9375 9.042969 C 9.207031 8.402344 8.738281 7.25 9.222656 6.765625 C 9.707031 6.28125 10.859375 6.75 11.5 6.480469 C 12.121094 6.222656 12.597656 5.070312 13.3125 5.070312 C 14.027344 5.070312 14.503906 6.222656 15.125 6.480469 C 15.765625 6.75 16.917969 6.28125 17.402344 6.765625 C 17.886719 7.25 17.417969 8.402344 17.683594 9.042969 C 17.941406 9.664062 19.097656 10.140625 19.097656 10.855469 Z M 19.097656 10.855469 " fill-opacity="1" fill-rule="nonzero"/></g><g clip-path="url(#847e2f19e4)"><path fill="#fffbd7" d="M 19.097656 10.855469 C 19.097656 11.273438 18.695312 11.613281 18.3125 11.949219 C 18.320312 11.90625 18.324219 11.863281 18.324219 11.820312 C 18.324219 11.082031 17.132812 10.589844 16.867188 9.949219 C 16.59375 9.28125 17.074219 8.09375 16.574219 7.59375 C 16.074219 7.089844 14.886719 7.574219 14.21875 7.300781 C 13.578125 7.035156 13.085938 5.84375 12.347656 5.84375 C 12.300781 5.84375 12.261719 5.847656 12.21875 5.855469 C 12.554688 5.472656 12.890625 5.070312 13.3125 5.070312 C 14.027344 5.070312 14.503906 6.222656 15.125 6.484375 C 15.765625 6.75 16.917969 6.28125 17.402344 6.765625 C 17.886719 7.25 17.417969 8.402344 17.683594 9.042969 C 17.945312 9.664062 19.097656 10.140625 19.097656 10.855469 Z M 19.097656 10.855469 " fill-opacity="1" fill-rule="nonzero"/></g><g clip-path="url(#0e6c125091)"><path fill="#ffb300" d="M 14.484375 15.761719 C 14.125 16.167969 13.765625 16.640625 13.3125 16.640625 C 12.597656 16.640625 12.121094 15.484375 11.5 15.226562 C 10.859375 14.960938 9.707031 15.429688 9.222656 14.945312 C 8.738281 14.460938 9.207031 13.308594 8.941406 12.667969 C 8.679688 12.046875 7.527344 11.566406 7.527344 10.855469 C 7.527344 10.140625 8.679688 9.664062 8.941406 9.042969 C 9.207031 8.402344 8.738281 7.25 9.222656 6.765625 C 9.511719 6.480469 10.035156 6.523438 10.542969 6.554688 C 10.488281 7.101562 10.671875 7.816406 10.480469 8.273438 C 10.222656 8.890625 9.070312 9.371094 9.070312 10.082031 C 9.070312 10.796875 10.222656 11.273438 10.480469 11.894531 C 10.75 12.535156 10.28125 13.6875 10.765625 14.175781 C 11.25 14.65625 12.402344 14.191406 13.042969 14.457031 C 13.546875 14.667969 13.960938 15.472656 14.484375 15.761719 Z M 14.484375 15.761719 " fill-opacity="1" fill-rule="nonzero"/></g><g clip-path="url(#eed6575477)"><path fill="#000000" d="M 18.597656 9.5 C 18.363281 9.292969 18.117188 9.078125 18.042969 8.894531 C 17.960938 8.699219 17.980469 8.363281 18 8.035156 C 18.035156 7.5 18.070312 6.890625 17.675781 6.492188 C 17.277344 6.097656 16.671875 6.132812 16.132812 6.167969 C 15.804688 6.1875 15.46875 6.207031 15.273438 6.125 C 15.089844 6.050781 14.875 5.804688 14.667969 5.570312 C 14.304688 5.15625 13.894531 4.6875 13.3125 4.6875 C 12.730469 4.6875 12.320312 5.15625 11.957031 5.566406 C 11.75 5.804688 11.535156 6.050781 11.355469 6.125 C 11.15625 6.207031 10.820312 6.1875 10.492188 6.167969 C 9.957031 6.132812 9.347656 6.097656 8.949219 6.492188 C 8.554688 6.890625 8.589844 7.496094 8.625 8.035156 C 8.644531 8.363281 8.664062 8.699219 8.582031 8.894531 C 8.507812 9.078125 8.261719 9.292969 8.027344 9.5 C 7.613281 9.859375 7.144531 10.269531 7.144531 10.855469 C 7.144531 11.4375 7.613281 11.847656 8.027344 12.210938 C 8.261719 12.417969 8.507812 12.632812 8.582031 12.8125 C 8.664062 13.011719 8.644531 13.347656 8.625 13.675781 C 8.589844 14.210938 8.554688 14.820312 8.949219 15.21875 C 9.347656 15.613281 9.953125 15.578125 10.492188 15.542969 C 10.820312 15.523438 11.15625 15.503906 11.351562 15.585938 C 11.535156 15.660156 11.75 15.902344 11.957031 16.140625 C 12.320312 16.554688 12.730469 17.023438 13.3125 17.023438 C 13.894531 17.023438 14.304688 16.554688 14.667969 16.140625 C 14.875 15.90625 15.089844 15.660156 15.269531 15.585938 C 15.46875 15.503906 15.804688 15.523438 16.132812 15.542969 C 16.667969 15.578125 17.277344 15.613281 17.675781 15.21875 C 18.070312 14.820312 18.035156 14.210938 18 13.675781 C 17.980469 13.347656 17.960938 13.011719 18.042969 12.8125 C 18.117188 12.632812 18.363281 12.417969 18.597656 12.210938 C 19.011719 11.847656 19.480469 11.4375 19.480469 10.855469 C 19.480469 10.269531 19.011719 9.859375 18.597656 9.5 Z M 18.089844 11.628906 C 17.789062 11.894531 17.472656 12.171875 17.328125 12.519531 C 17.179688 12.878906 17.207031 13.308594 17.230469 13.722656 C 17.253906 14.097656 17.28125 14.523438 17.128906 14.671875 C 16.980469 14.824219 16.554688 14.796875 16.179688 14.773438 C 15.765625 14.75 15.339844 14.722656 14.976562 14.871094 C 14.628906 15.015625 14.355469 15.332031 14.089844 15.632812 C 13.820312 15.9375 13.546875 16.253906 13.3125 16.253906 C 13.078125 16.253906 12.804688 15.9375 12.535156 15.632812 C 12.269531 15.332031 11.996094 15.015625 11.648438 14.871094 C 11.425781 14.78125 11.175781 14.753906 10.921875 14.753906 C 10.765625 14.753906 10.605469 14.761719 10.445312 14.773438 C 10.070312 14.796875 9.644531 14.824219 9.496094 14.671875 C 9.34375 14.519531 9.371094 14.097656 9.394531 13.722656 C 9.417969 13.308594 9.445312 12.878906 9.296875 12.519531 C 9.152344 12.171875 8.835938 11.894531 8.53125 11.628906 C 8.230469 11.363281 7.914062 11.089844 7.914062 10.855469 C 7.914062 10.621094 8.230469 10.347656 8.535156 10.078125 C 8.835938 9.8125 9.152344 9.539062 9.296875 9.191406 C 9.445312 8.828125 9.417969 8.402344 9.394531 7.988281 C 9.371094 7.613281 9.34375 7.1875 9.496094 7.039062 C 9.644531 6.886719 10.070312 6.914062 10.445312 6.9375 C 10.859375 6.960938 11.285156 6.988281 11.648438 6.839844 C 11.996094 6.695312 12.269531 6.378906 12.535156 6.074219 C 12.804688 5.769531 13.078125 5.457031 13.3125 5.457031 C 13.546875 5.457031 13.820312 5.769531 14.089844 6.074219 C 14.355469 6.378906 14.628906 6.695312 14.976562 6.839844 C 15.339844 6.988281 15.765625 6.960938 16.179688 6.9375 C 16.554688 6.914062 16.980469 6.886719 17.128906 7.039062 C 17.28125 7.1875 17.253906 7.613281 17.230469 7.988281 C 17.207031 8.402344 17.179688 8.828125 17.328125 9.191406 C 17.472656 9.539062 17.789062 9.8125 18.09375 10.078125 C 18.394531 10.347656 18.710938 10.621094 18.710938 10.855469 C 18.710938 11.089844 18.394531 11.363281 18.089844 11.628906 Z M 18.089844 11.628906 " fill-opacity="1" fill-rule="nonzero"/></g><path fill="#000000" d="M 10.703125 11.644531 L 10.355469 11.808594 L 10.191406 11.460938 L 10.539062 11.296875 C 10.734375 11.207031 10.816406 10.976562 10.726562 10.785156 C 10.636719 10.589844 10.40625 10.507812 10.214844 10.597656 L 9.515625 10.925781 C 9.320312 11.015625 9.238281 11.242188 9.328125 11.4375 C 9.328125 11.4375 9.816406 12.484375 9.816406 12.484375 C 9.816406 12.484375 10.304688 13.53125 10.304688 13.535156 C 10.386719 13.707031 10.589844 13.789062 10.769531 13.738281 C 10.992188 13.671875 11.101562 13.414062 11.003906 13.207031 L 10.679688 12.507812 L 11.027344 12.34375 C 11.222656 12.253906 11.304688 12.027344 11.214844 11.832031 C 11.125 11.640625 10.894531 11.554688 10.703125 11.644531 Z M 10.703125 11.644531 " fill-opacity="1" fill-rule="nonzero"/><path fill="#000000" d="M 13.652344 11.738281 L 12.960938 11.316406 C 13.167969 11.039062 13.222656 10.664062 13.070312 10.332031 C 12.960938 10.097656 12.765625 9.921875 12.523438 9.832031 C 12.28125 9.742188 12.019531 9.753906 11.789062 9.863281 C 11.789062 9.863281 11.265625 10.109375 11.261719 10.109375 C 11.070312 10.199219 10.988281 10.429688 11.078125 10.621094 C 11.078125 10.621094 12.054688 12.714844 12.054688 12.71875 C 12.136719 12.894531 12.347656 12.980469 12.527344 12.917969 C 12.742188 12.847656 12.847656 12.59375 12.753906 12.390625 L 12.558594 11.972656 L 13.253906 12.394531 C 13.3125 12.433594 13.382812 12.453125 13.453125 12.453125 C 13.828125 12.453125 13.976562 11.933594 13.652344 11.738281 Z M 12.261719 10.558594 C 12.417969 10.613281 12.429688 10.839844 12.277344 10.914062 C 12.277344 10.914062 12.101562 10.996094 12.101562 10.996094 L 11.9375 10.644531 L 12.113281 10.5625 C 12.160156 10.542969 12.214844 10.539062 12.261719 10.558594 Z M 12.261719 10.558594 " fill-opacity="1" fill-rule="nonzero"/><path fill="#000000" d="M 15.035156 10.902344 L 14.6875 11.066406 L 14.523438 10.714844 C 14.523438 10.714844 14.871094 10.550781 14.875 10.550781 C 15.320312 10.34375 15.003906 9.640625 14.546875 9.851562 L 14.199219 10.015625 L 14.035156 9.667969 C 14.035156 9.667969 14.382812 9.503906 14.382812 9.503906 C 14.828125 9.296875 14.515625 8.59375 14.058594 8.804688 L 13.359375 9.128906 C 13.167969 9.21875 13.082031 9.449219 13.171875 9.644531 L 14.148438 11.738281 C 14.214844 11.878906 14.355469 11.960938 14.5 11.960938 C 14.554688 11.960938 14.609375 11.949219 14.664062 11.925781 C 14.664062 11.925781 15.359375 11.601562 15.363281 11.601562 C 15.808594 11.390625 15.492188 10.691406 15.035156 10.902344 Z M 15.035156 10.902344 " fill-opacity="1" fill-rule="nonzero"/><path fill="#000000" d="M 16.785156 10.085938 L 16.433594 10.25 L 16.269531 9.902344 C 16.269531 9.902344 16.621094 9.738281 16.621094 9.738281 C 17.066406 9.53125 16.75 8.828125 16.292969 9.039062 L 15.945312 9.203125 L 15.78125 8.851562 C 15.78125 8.851562 16.132812 8.691406 16.132812 8.691406 C 16.578125 8.480469 16.261719 7.78125 15.804688 7.992188 L 15.105469 8.316406 C 14.914062 8.40625 14.828125 8.636719 14.921875 8.828125 C 14.921875 8.828125 15.410156 9.875 15.410156 9.878906 L 15.898438 10.925781 C 15.964844 11.066406 16.101562 11.148438 16.246094 11.148438 C 16.300781 11.148438 16.359375 11.136719 16.410156 11.113281 C 16.410156 11.113281 17.109375 10.785156 17.109375 10.785156 C 17.554688 10.578125 17.238281 9.875 16.785156 10.085938 Z M 16.785156 10.085938 " fill-opacity="1" fill-rule="nonzero"/></svg>