<svg width="53" height="34" viewBox="0 0 53 34" fill="none" xmlns="http://www.w3.org/2000/svg">
<g clip-path="url(#clip0_1_652)">
<mask id="mask0_1_652" style="mask-type:luminance" maskUnits="userSpaceOnUse" x="1" y="0" width="50" height="33">
<path d="M1.48359 0.790039H50.9836V32.2432H1.48359V0.790039Z" fill="white"/>
</mask>
<g mask="url(#mask0_1_652)">
<path d="M48.4613 32.1959H4.53867C4.13906 32.1959 3.75234 32.1186 3.38281 31.9639C3.01328 31.8135 2.68672 31.5943 2.40313 31.3107C2.11953 31.0271 1.90039 30.7049 1.7457 30.3354C1.59531 29.9658 1.51797 29.5791 1.51367 29.1795V3.74199C1.51367 2.0834 2.87578 0.725586 4.53867 0.725586H48.4613C50.1242 0.725586 51.4863 2.0834 51.4863 3.74199V29.1795C51.4863 30.8381 50.1242 32.1959 48.4613 32.1959Z" fill="white"/>
<path d="M48.2809 32.1959H4.71914C2.94883 32.1959 1.51367 30.7865 1.51367 29.0506V3.8709C1.51367 2.13926 2.94883 0.725586 4.71914 0.725586H48.2809C50.0512 0.725586 51.4863 2.13926 51.4863 3.8709V29.0506C51.4863 30.7865 50.0512 32.1959 48.2809 32.1959ZM4.71914 1.98457C3.65781 1.98457 2.79414 2.83105 2.79414 3.8709V29.0506C2.79414 30.0904 3.65781 30.9369 4.71914 30.9369H48.2809C49.3422 30.9369 50.2059 30.0904 50.2059 29.0506V3.8709C50.2059 2.83105 49.3422 1.98457 48.2809 1.98457H4.71914Z" fill="#A7A8AB" fill-opacity="0.25"/>
</g>
<path d="M12.1398 7.25684H13.0594V15.5154H12.1398V7.25684ZM9.73359 7.25684H10.6531V15.5154H9.73359V7.25684ZM19.2727 7.25684H21.7734V15.5154H19.2727V7.25684ZM32.0473 7.25684H33.2977V15.5154H32.0473V7.25684ZM35.1066 7.25684H36.3527V15.5154H35.1066V7.25684ZM40.1082 7.25684H41.7152V15.5154H40.1082V7.25684ZM38.2992 7.25684H38.8191V15.5154H38.2992V7.25684ZM29.8988 7.25684H30.4187V15.5154H29.8988V7.25684ZM28.7859 7.25684H29.3059V15.5154H28.7859V7.25684ZM25.1766 7.25684H25.6965V15.5154H25.1766V7.25684ZM16.8793 7.25684H17.3992V15.5154H16.8793V7.25684ZM15.3496 7.25684H16.3121V15.5154H15.3496V7.25684ZM9.73359 26.0814V17.5865H12.9305C13.5793 17.5865 14.0992 17.6725 14.4945 17.84C14.8898 18.0119 15.1949 18.2783 15.4184 18.635C15.6418 18.9916 15.7535 19.3654 15.7535 19.7564C15.7535 20.1217 15.6547 20.4611 15.457 20.7834C15.2336 21.1271 14.9371 21.3893 14.5633 21.5611C15.0789 21.7115 15.4742 21.9693 15.7492 22.3303C16.0285 22.6912 16.166 23.1209 16.166 23.615C16.166 24.0146 16.0844 24.3842 15.9125 24.7279C15.7707 25.0416 15.5602 25.3037 15.2895 25.5186C15.0402 25.699 14.7309 25.8408 14.357 25.9353C13.9059 26.0385 13.4461 26.09 12.982 26.0814H9.7293H9.73359ZM10.8637 21.1572H12.707C13.2055 21.1572 13.5664 21.1229 13.7813 21.0584C14.0434 20.9896 14.2625 20.8479 14.4301 20.633C14.5848 20.4096 14.6578 20.1604 14.6449 19.8896C14.6535 19.6189 14.5848 19.374 14.443 19.1463C14.3055 18.9271 14.1121 18.7811 13.8629 18.6994C13.6094 18.6221 13.1797 18.5834 12.5652 18.5834H10.8637V21.1572ZM10.8637 25.0846H12.9863C13.3516 25.0846 13.6051 25.0674 13.7555 25.0416C14.0133 24.9943 14.2324 24.917 14.4043 24.8096C14.5934 24.6893 14.7352 24.5303 14.834 24.3369C14.95 24.1307 15.0059 23.89 15.0059 23.6193C15.0059 23.3014 14.9242 23.0264 14.7566 22.79C14.5891 22.5451 14.3613 22.3818 14.0777 22.2959C13.7898 22.2014 13.3773 22.1541 12.8359 22.1541H10.8637V25.0846ZM17.193 23.0006C17.193 21.8619 17.5109 21.024 18.1469 20.474C18.6754 20.0186 19.3242 19.7908 20.0848 19.7908C20.9355 19.7908 21.6273 20.0701 22.1687 20.6201C22.7059 21.1744 22.9766 21.9393 22.9766 22.9146C22.9766 23.7053 22.8562 24.3283 22.6199 24.7795C22.3793 25.2393 22.0312 25.5873 21.5758 25.8365C21.1117 26.09 20.6176 26.2146 20.0891 26.2103C19.2254 26.2103 18.525 25.9353 17.9922 25.3853C17.4594 24.8311 17.193 24.0361 17.193 23.0006ZM18.2629 23.0049C18.2629 23.7912 18.4348 24.3799 18.7828 24.7709C19.1266 25.1619 19.5605 25.3553 20.0891 25.3553C20.609 25.3553 21.0387 25.1619 21.3867 24.7666C21.7305 24.3756 21.9066 23.774 21.9066 22.9705C21.9066 22.21 21.7305 21.6342 21.3824 21.2475C21.043 20.8479 20.6133 20.6502 20.0891 20.6588C19.5605 20.6588 19.1266 20.8521 18.7828 21.2432C18.4348 21.6299 18.2629 22.2186 18.2629 23.0049ZM24.1797 26.0814V17.5865H25.2238V26.0814H24.1797ZM31.0547 24.0877L32.1375 24.2295C31.9699 24.8568 31.6562 25.3424 31.1965 25.6904C30.7324 26.0385 30.148 26.2103 29.4305 26.2103C28.5324 26.2103 27.8191 25.9353 27.2906 25.3811C26.7621 24.8268 26.4957 24.0533 26.4957 23.0521C26.4957 22.0209 26.7621 21.2174 27.2949 20.6502C27.832 20.0787 28.5238 19.7908 29.3746 19.7908C30.1953 19.7908 30.8699 20.0701 31.3898 20.6287C31.9141 21.1916 32.1762 21.9779 32.1762 22.992L32.1676 23.267H27.5699C27.6086 23.9416 27.802 24.4572 28.1457 24.8182C28.4937 25.1877 28.9234 25.3682 29.4305 25.3553C29.8172 25.3553 30.1437 25.2521 30.4102 25.0502C30.6852 24.8482 30.8957 24.526 31.0547 24.0834V24.0877ZM27.6301 22.4119H31.0676C31.0203 21.8963 30.8914 21.5053 30.6723 21.2475C30.3414 20.835 29.9117 20.633 29.3832 20.6459C28.902 20.6459 28.498 20.8049 28.1715 21.1271C27.8449 21.4451 27.6645 21.8748 27.6301 22.4119ZM35.734 25.149L35.8801 26.0728C35.618 26.1287 35.3559 26.1588 35.0895 26.1631C34.7113 26.1631 34.4191 26.1029 34.2086 25.9826C34.0023 25.8623 33.852 25.7076 33.766 25.51C33.6844 25.3166 33.6414 24.9041 33.6414 24.2768V20.7318H32.868V19.924H33.6414V18.4029L34.6855 17.7756V19.924H35.734V20.7318H34.6855V24.3369C34.6855 24.6377 34.707 24.8268 34.7414 24.9127C34.7801 25.0029 34.8402 25.0717 34.9219 25.1189C35.0336 25.1748 35.1539 25.2006 35.2785 25.192L35.734 25.149ZM36.3742 23.0006C36.3742 21.8619 36.6922 21.024 37.3281 20.474C37.8609 20.0186 38.5055 19.7908 39.2703 19.7908C40.1168 19.7908 40.8129 20.0701 41.35 20.6201C41.8871 21.1744 42.1578 21.9393 42.1578 22.9146C42.1578 23.7053 42.0375 24.3283 41.8012 24.7795C41.5648 25.2393 41.2168 25.5873 40.7613 25.8365C40.2973 26.09 39.7988 26.2146 39.2703 26.2103C38.4066 26.2103 37.7105 25.9353 37.1734 25.3853C36.6406 24.8311 36.3742 24.0361 36.3742 23.0006ZM37.4441 23.0049C37.4441 23.7912 37.6203 24.3799 37.9641 24.7709C38.3121 25.1619 38.7461 25.3553 39.2703 25.3553C39.7902 25.3553 40.2242 25.1619 40.5723 24.7666C40.916 24.3756 41.0879 23.774 41.0879 22.9705C41.0879 22.21 40.9117 21.6342 40.568 21.2475C40.2285 20.8479 39.7945 20.6502 39.2703 20.6588C38.7461 20.6588 38.3121 20.8521 37.9641 21.2432C37.6203 21.6299 37.4441 22.2186 37.4441 23.0049Z" fill="#221F1F"/>
</g>
<defs>
<clipPath id="clip0_1_652">
<rect width="51.15" height="33" fill="white" transform="translate(0.924999 0.790039)"/>
</clipPath>
</defs>
</svg>
